<svg xmlns="http://www.w3.org/2000/svg" xmlns:xlink="http://www.w3.org/1999/xlink" version="1.1" viewBox="0 0 1640 2011" style="background: #111111"><defs><style>@import url(https://fonts.googleapis.com/css?family=Open+Sans:400,700);</style></defs><defs joint-selector="defs"></defs><g joint-selector="layers" transform="matrix(1,0,0,1,0,0)" ><g ></g><g ><!--z-index:-2--><!--z-index:-1--><!--z-index:0--><!--z-index:1--><!--z-index:2--><!--z-index:3--><!--z-index:4--><!--z-index:5--><!--z-index:6--><!--z-index:7--><!--z-index:8--><!--z-index:9--><g   id="j_45"  transform="translate(949,765)" style=""><g  id="v-462" style="opacity: 1;"><rect  id="v-463" width="490" height="411" rx="10" ry="10" fill="#111111" stroke="#888888" stroke-width="1" pointer-events="none" style="stroke: rgb(136, 136, 136);"></rect><text  id="v-464" font-size="24px" xml:space="preserve" y="372" font-weight="normal" text-anchor="start" pointer-events="visible" font-family="Open Sans" fill="#ffffff" transform="matrix(1,0,0,1,15,0)" style="fill: rgb(255, 255, 255);"><tspan dy="0" >Kafka Cluster</tspan></text><text  id="v-465" font-size="17px" xml:space="preserve" y="396" font-weight="normal" text-anchor="start" pointer-events="visible" font-family="Open Sans" fill="#ffffff" transform="matrix(1,0,0,1,15,0)" style="fill: rgb(255, 255, 255);"><tspan dy="0" >[Deployment Node]</tspan></text><text  id="v-466" font-size="40px" xml:space="preserve" display="none" y="396" font-weight="normal" fill="#ffffff" text-anchor="end" pointer-events="visible" font-family="Open Sans" transform="matrix(1,0,0,1,475,0)"><tspan dy="0" style="fill-opacity: 0; stroke-opacity: 0;" >-</tspan></text><image  id="v-467" pointer-events="visible"></image></g></g><!--z-index:10--><g   id="j_42"  transform="translate(969,785)" style=""><g  id="v-442" style="opacity: 1;"><path  d="M 0,30 a 225,30 0,0,0 450 0 a 225,30 0,0,0 -450 0 l 0,240 a 225,30 0,0,0 450 0 l 0,-240" id="v-443" stroke="#826644" stroke-width="2" pointer-events="visiblePainted" fill="#90714c" style="fill: rgb(144, 113, 76); stroke: rgb(130, 102, 68);"></path><rect  id="v-444" stroke-width="0" pointer-events="visiblePainted" fill="none" stroke="none" width="450" height="270" x="0" y="30"></rect><text  id="v-445" font-size="34" xml:space="preserve" y="0.8em" font-weight="bold" text-anchor="middle" pointer-events="visible" font-family="Open Sans" fill="#ffffff" transform="matrix(1,0,0,1,225,125)" style="fill: rgb(255, 255, 255);"><tspan dy="0" >Event Broker</tspan></text><text  id="v-446" font-size="17" xml:space="preserve" y="0.8em" text-anchor="middle" font-family="Open Sans" fill="#ffffff" transform="matrix(1,0,0,1,225,165.8)" style="fill: rgb(255, 255, 255);"><tspan dy="0" >[Container: Kafka]</tspan></text><text  id="v-447" font-size="24" xml:space="preserve" y="0.8em" text-anchor="middle" font-family="Open Sans" fill="#ffffff" transform="matrix(1,0,0,1,225,196.2)" style="fill: rgb(255, 255, 255);"><tspan dy="0" >Handles asynchronous eventing.</tspan></text><g  id="v-448" font-weight="normal" text-anchor="middle" color="#ffffff" transform="matrix(1,0,0,1,222.5,268)" display="none" style="fill: rgb(255, 255, 255);"><g ></g><g ></g><g ></g><g ></g></g><image  id="v-449"></image></g></g><!--z-index:11--><g   id="j_44"  transform="translate(949,1365)" style=""><g  id="v-456" style="opacity: 1;"><rect  id="v-457" width="490" height="411" rx="10" ry="10" fill="#111111" stroke="#888888" stroke-width="1" pointer-events="none" style="stroke: rgb(136, 136, 136);"></rect><text  id="v-458" font-size="24px" xml:space="preserve" y="372" font-weight="normal" text-anchor="start" pointer-events="visible" font-family="Open Sans" fill="#ffffff" transform="matrix(1,0,0,1,15,0)" style="fill: rgb(255, 255, 255);"><tspan dy="0" >Architectural Quantum 2</tspan></text><text  id="v-459" font-size="17px" xml:space="preserve" y="396" font-weight="normal" text-anchor="start" pointer-events="visible" font-family="Open Sans" fill="#ffffff" transform="matrix(1,0,0,1,15,0)" style="fill: rgb(255, 255, 255);"><tspan dy="0" >[Deployment Node]</tspan></text><text  id="v-460" font-size="40px" xml:space="preserve" display="none" y="396" font-weight="normal" fill="#ffffff" text-anchor="end" pointer-events="visible" font-family="Open Sans" transform="matrix(1,0,0,1,475,0)"><tspan dy="0" style="fill-opacity: 0; stroke-opacity: 0;" >-</tspan></text><image  id="v-461" pointer-events="visible"></image></g></g><!--z-index:12--><g   id="j_41"  transform="translate(969,1385)" style=""><g  id="v-432" style="opacity: 1;"><rect  id="v-433" rx="20" ry="20" stroke="#0f5eaa" stroke-width="2" pointer-events="visiblePainted" fill="#1168bd" width="450" height="300" style="fill: rgb(17, 104, 189); stroke: rgb(15, 94, 170);"></rect><text  id="v-434" font-size="34" xml:space="preserve" y="0.8em" font-weight="bold" text-anchor="middle" pointer-events="visible" font-family="Open Sans" fill="#ffffff" transform="matrix(1,0,0,1,225,102.5)" style="fill: rgb(255, 255, 255);"><tspan dy="0" >Notifications Service</tspan></text><text  id="v-435" font-size="17" xml:space="preserve" y="0.8em" text-anchor="middle" font-family="Open Sans" fill="#ffffff" transform="matrix(1,0,0,1,225,143.3)" style="fill: rgb(255, 255, 255);"><tspan dy="0" >[Container: Java]</tspan></text><text  id="v-436" font-size="24" xml:space="preserve" y="0.8em" text-anchor="middle" font-family="Open Sans" fill="#ffffff" transform="matrix(1,0,0,1,225,173.7)" style="fill: rgb(255, 255, 255);"><tspan dy="0" >Sends notifications to users.</tspan></text><g  id="v-437" color="#ffffff" transform="matrix(1,0,0,1,222.5,268)" display="none" style="fill: rgb(255, 255, 255);"><g ></g><g ></g><g ></g><g ></g></g><image  id="v-438"></image></g></g><!--z-index:13--><g   id="j_43"  transform="translate(199,165)" style=""><g  id="v-450" style="opacity: 1;"><rect  id="v-451" width="490" height="1011" rx="10" ry="10" fill="#111111" stroke="#888888" stroke-width="1" pointer-events="none" style="stroke: rgb(136, 136, 136);"></rect><text  id="v-452" font-size="24px" xml:space="preserve" y="972" font-weight="normal" text-anchor="start" pointer-events="visible" font-family="Open Sans" fill="#ffffff" transform="matrix(1,0,0,1,15,0)" style="fill: rgb(255, 255, 255);"><tspan dy="0" >Architectural Quantum 1</tspan></text><text  id="v-453" font-size="17px" xml:space="preserve" y="996" font-weight="normal" text-anchor="start" pointer-events="visible" font-family="Open Sans" fill="#ffffff" transform="matrix(1,0,0,1,15,0)" style="fill: rgb(255, 255, 255);"><tspan dy="0" >[Deployment Node]</tspan></text><text  id="v-454" font-size="40px" xml:space="preserve" display="none" y="996" font-weight="normal" fill="#ffffff" text-anchor="end" pointer-events="visible" font-family="Open Sans" transform="matrix(1,0,0,1,475,0)"><tspan dy="0" style="fill-opacity: 0; stroke-opacity: 0;" >-</tspan></text><image  id="v-455" pointer-events="visible"></image></g></g><!--z-index:14--><g   id="j_39"  transform="translate(219,185)" style=""><g  id="v-406" style="opacity: 1;"><rect  id="v-407" rx="20" ry="20" stroke="#0f5eaa" stroke-width="2" pointer-events="visiblePainted" fill="#1168bd" width="450" height="300" style="fill: rgb(17, 104, 189); stroke: rgb(15, 94, 170);"></rect><text  id="v-408" font-size="34" xml:space="preserve" y="0.8em" font-weight="bold" text-anchor="middle" pointer-events="visible" font-family="Open Sans" fill="#ffffff" transform="matrix(1,0,0,1,225,102.5)" style="fill: rgb(255, 255, 255);"><tspan dy="0" >Pricing Service</tspan></text><text  id="v-409" font-size="17" xml:space="preserve" y="0.8em" text-anchor="middle" font-family="Open Sans" fill="#ffffff" transform="matrix(1,0,0,1,225,143.3)" style="fill: rgb(255, 255, 255);"><tspan dy="0" >[Container: Java]</tspan></text><text  id="v-410" font-size="24" xml:space="preserve" y="0.8em" text-anchor="middle" font-family="Open Sans" fill="#ffffff" transform="matrix(1,0,0,1,225,173.7)" style="fill: rgb(255, 255, 255);"><tspan dy="0" >Calculates prices for products.</tspan></text><g  id="v-411" color="#ffffff" transform="matrix(1,0,0,1,222.5,268)" display="none" style="fill: rgb(255, 255, 255);"><g ></g><g ></g><g ></g><g ></g></g><image  id="v-412"></image></g></g><!--z-index:15--><g   id="j_40"  transform="translate(219,785)" style=""><g  id="v-419" style="opacity: 1;"><rect  id="v-420" rx="20" ry="20" stroke="#0f5eaa" stroke-width="2" pointer-events="visiblePainted" fill="#1168bd" width="450" height="300" style="fill: rgb(17, 104, 189); stroke: rgb(15, 94, 170);"></rect><text  id="v-421" font-size="34" xml:space="preserve" y="0.8em" font-weight="bold" text-anchor="middle" pointer-events="visible" font-family="Open Sans" fill="#ffffff" transform="matrix(1,0,0,1,225,102.5)" style="fill: rgb(255, 255, 255);"><tspan dy="0" >Auditing Service</tspan></text><text  id="v-422" font-size="17" xml:space="preserve" y="0.8em" text-anchor="middle" font-family="Open Sans" fill="#ffffff" transform="matrix(1,0,0,1,225,143.3)" style="fill: rgb(255, 255, 255);"><tspan dy="0" >[Container: Java]</tspan></text><text  id="v-423" font-size="24" xml:space="preserve" y="0.8em" text-anchor="middle" font-family="Open Sans" fill="#ffffff" transform="matrix(1,0,0,1,225,173.7)" style="fill: rgb(255, 255, 255);"><tspan dy="0" >Audits every pricing calculation.</tspan></text><g  id="v-424" color="#ffffff" transform="matrix(1,0,0,1,222.5,268)" display="none" style="fill: rgb(255, 255, 255);"><g ></g><g ></g><g ></g><g ></g></g><image  id="v-425"></image></g></g><!--z-index:16--><g   id="j_38"  transform="translate(20,1974.6)"><g id="v-401"><text  id="v-402" font-size="22px" xml:space="preserve" y="0.8em" font-weight="normal" text-anchor="start" fill="#777777" pointer-events="none" display="block" font-family="Open Sans"><tspan dy="0" >Wednesday, 5 November 2025 at 3:07 PM India Standard Time</tspan></text></g></g><!--z-index:17--><g   id="j_37"  transform="translate(20,1931.3999999999999)"><g id="v-399"><text  id="v-400" font-size="36px" xml:space="preserve" y="0.8em" font-weight="normal" text-anchor="start" fill="#bbbbbb" pointer-events="none" display="block" font-family="Open Sans"><tspan dy="0" >[Deployment] E-commerce Platform - Production</tspan></text></g></g><!--z-index:18--><g   id="j_46" ><path  stroke="#aaaaaa" d="M 444 485 L 444 785" id="v-483" stroke-width="2" stroke-dasharray="30 30" fill="none" style="opacity: 1;"></path><path  fill="black" stroke="black" d="M 0 0 0 0" transform="matrix(6.123233995736766e-17,1,-1,6.123233995736766e-17,444,485)"></path><path  fill="#aaaaaa" stroke="#aaaaaa" d="M 20 0 L 0 10 L 20 20 z" id="v-485" transform="matrix(-1.8369701987210297e-16,-1,1,-1.8369701987210297e-16,434,785)" style="opacity: 1;"></path><path  d="M 444 485 L 444 785" id="v-484" fill="none" style="cursor: auto; pointer-events: visiblepainted;"></path><g ><g id="v-474"  label-idx="0" cursor="move" transform="matrix(1,0,0,1,444,635)" style="cursor: default; opacity: 1;"><rect joint-selector="rect" id="v-478" fill="#111111" rx="3" ry="3" pointer-events="none" width="187.15625" height="119.09375" transform="matrix(1,0,0,1,-93.6,-59.6)"></rect><text joint-selector="text" id="v-477" font-size="24px" xml:space="preserve" y="0.8em" fill="#aaaaaa" text-anchor="middle" pointer-events="none" font-family="Open Sans" font-weight="normal" transform="matrix(1,0,0,1,0,-53.1)"><tspan dy="0" >Makes a</tspan><tspan dy="1.2em" x="0" >synchronous call</tspan><tspan dy="1.2em" x="0" >to log the</tspan><tspan dy="1.2em" x="0" >calculation</tspan></text></g><g id="v-475"  label-idx="1" cursor="move" transform="matrix(1,0,0,1,444,704.5999755859375)" style="cursor: default; opacity: 1;"><rect joint-selector="rect" id="v-480" fill="#111111" rx="3" ry="3" pointer-events="none" width="98.78125" height="23.171875" transform="matrix(1,0,0,1,-49.4,-11.6)"></rect><text joint-selector="text" id="v-479" font-size="17px" xml:space="preserve" y="0.8em" fill="#aaaaaa" text-anchor="middle" pointer-events="none" font-family="Open Sans" font-weight="normal" transform="matrix(1,0,0,1,0,-7)"><tspan dy="0" >[JSON/HTTP]</tspan></text></g><g id="v-476"  label-idx="2" cursor="move" transform="matrix(1,0,0,1,434,713)" style="cursor: default; opacity: 1;"><rect joint-selector="rect" id="v-482" fill="#ffffff" rx="3" ry="3"  width="0" height="0" transform="matrix(1,0,0,1,0,0)" display="none"></rect><text joint-selector="text" id="v-481" fill="#000000" font-size="14" text-anchor="middle" pointer-events="none"></text></g></g><g  display="none" style="display: none;"></g><g  id="v-487" display="none"><g  id="v-472"><path  end="source" d="M 26 0 L 0 13 L 26 26 z"></path></g><g  id="v-473"><path  end="target" d="M 26 0 L 0 13 L 26 26 z"></path></g></g><g  id="v-486" display="none"><g  id="v-471" transform="translate(444, 525) "><g  event="remove"><circle r="11"></circle><path transform="scale(.8) translate(-16, -16)" d="M24.778,21.419 19.276,15.917 24.777,10.415 21.949,7.585 16.447,13.087 10.945,7.585 8.117,10.415 13.618,15.917 8.116,21.419 10.946,24.248 16.447,18.746 21.948,24.248z"></path><title>Remove link.</title></g><g  event="link:options"><circle r="11" transform="translate(25)"></circle><path fill="white" transform="scale(.55) translate(29, -16)" d="M31.229,17.736c0.064-0.571,0.104-1.148,0.104-1.736s-0.04-1.166-0.104-1.737l-4.377-1.557c-0.218-0.716-0.504-1.401-0.851-2.05l1.993-4.192c-0.725-0.91-1.549-1.734-2.458-2.459l-4.193,1.994c-0.647-0.347-1.334-0.632-2.049-0.849l-1.558-4.378C17.165,0.708,16.588,0.667,16,0.667s-1.166,0.041-1.737,0.105L12.707,5.15c-0.716,0.217-1.401,0.502-2.05,0.849L6.464,4.005C5.554,4.73,4.73,5.554,4.005,6.464l1.994,4.192c-0.347,0.648-0.632,1.334-0.849,2.05l-4.378,1.557C0.708,14.834,0.667,15.412,0.667,16s0.041,1.165,0.105,1.736l4.378,1.558c0.217,0.715,0.502,1.401,0.849,2.049l-1.994,4.193c0.725,0.909,1.549,1.733,2.459,2.458l4.192-1.993c0.648,0.347,1.334,0.633,2.05,0.851l1.557,4.377c0.571,0.064,1.148,0.104,1.737,0.104c0.588,0,1.165-0.04,1.736-0.104l1.558-4.377c0.715-0.218,1.399-0.504,2.049-0.851l4.193,1.993c0.909-0.725,1.733-1.549,2.458-2.458l-1.993-4.193c0.347-0.647,0.633-1.334,0.851-2.049L31.229,17.736zM16,20.871c-2.69,0-4.872-2.182-4.872-4.871c0-2.69,2.182-4.872,4.872-4.872c2.689,0,4.871,2.182,4.871,4.872C20.871,18.689,18.689,20.871,16,20.871z"></path><title>Link options.</title></g></g></g></g><!--z-index:19--><g   id="j_47" ><path  stroke="#aaaaaa" d="M 632 485 L 1007 785" id="v-503" stroke-width="2" stroke-dasharray="30 30" fill="none" style="opacity: 1;"></path><path  fill="black" stroke="black" d="M 0 0 0 0" transform="matrix(0.7808688000832672,0.624695059254128,-0.624695059254128,0.7808688000832672,631.5,485)"></path><path  fill="#aaaaaa" stroke="#aaaaaa" d="M 20 0 L 0 10 L 20 20 z" id="v-505" transform="matrix(-0.7808688416748548,-0.6246950072646416,0.6246950072646416,-0.7808688416748548,1000.2530225237896,792.8086902472074)" style="opacity: 1;"></path><path  d="M 632 485 L 1007 785" id="v-504" fill="none" style="cursor: auto; pointer-events: visiblepainted;"></path><g ><g id="v-494"  label-idx="0" cursor="move" transform="matrix(1,0,0,1,819.5,635)" style="cursor: default; opacity: 1;"><rect joint-selector="rect" id="v-498" fill="#111111" rx="3" ry="3" pointer-events="none" width="182.65625" height="90.296875" transform="matrix(1,0,0,1,-91.3,-45.2)"></rect><text joint-selector="text" id="v-497" font-size="24px" xml:space="preserve" y="0.8em" fill="#aaaaaa" text-anchor="middle" pointer-events="none" font-family="Open Sans" font-weight="normal" transform="matrix(1,0,0,1,0,-38.7)"><tspan dy="0" >Publishes</tspan><tspan dy="1.2em" x="0" >'PriceCalculated'</tspan><tspan dy="1.2em" x="0" >event</tspan></text></g><g id="v-495"  label-idx="1" cursor="move" transform="matrix(1,0,0,1,819.5,690.2000122070312)" style="cursor: default; opacity: 1;"><rect joint-selector="rect" id="v-500" fill="#111111" rx="3" ry="3" pointer-events="none" width="103.21875" height="23.171875" transform="matrix(1,0,0,1,-51.6,-11.6)"></rect><text joint-selector="text" id="v-499" font-size="17px" xml:space="preserve" y="0.8em" fill="#aaaaaa" text-anchor="middle" pointer-events="none" font-family="Open Sans" font-weight="normal" transform="matrix(1,0,0,1,0,-7)"><tspan dy="0" >[JSON/Async]</tspan></text></g><g id="v-496"  label-idx="2" cursor="move" transform="matrix(1,0,0,1,809.5,698.5999755859375)" style="cursor: default; opacity: 1;"><rect joint-selector="rect" id="v-502" fill="#ffffff" rx="3" ry="3"  width="0" height="0" transform="matrix(1,0,0,1,0,0)" display="none"></rect><text joint-selector="text" id="v-501" fill="#000000" font-size="14" text-anchor="middle" pointer-events="none"></text></g></g><g  display="none" style="display: none;"></g><g  id="v-507" display="none"><g  id="v-492"><path  end="source" d="M 26 0 L 0 13 L 26 26 z"></path></g><g  id="v-493"><path  end="target" d="M 26 0 L 0 13 L 26 26 z"></path></g></g><g  id="v-506" display="none"><g  id="v-491" transform="translate(663.2347523777212, 509.987801902177) "><g  event="remove"><circle r="11"></circle><path transform="scale(.8) translate(-16, -16)" d="M24.778,21.419 19.276,15.917 24.777,10.415 21.949,7.585 16.447,13.087 10.945,7.585 8.117,10.415 13.618,15.917 8.116,21.419 10.946,24.248 16.447,18.746 21.948,24.248z"></path><title>Remove link.</title></g><g  event="link:options"><circle r="11" transform="translate(25)"></circle><path fill="white" transform="scale(.55) translate(29, -16)" d="M31.229,17.736c0.064-0.571,0.104-1.148,0.104-1.736s-0.04-1.166-0.104-1.737l-4.377-1.557c-0.218-0.716-0.504-1.401-0.851-2.05l1.993-4.192c-0.725-0.91-1.549-1.734-2.458-2.459l-4.193,1.994c-0.647-0.347-1.334-0.632-2.049-0.849l-1.558-4.378C17.165,0.708,16.588,0.667,16,0.667s-1.166,0.041-1.737,0.105L12.707,5.15c-0.716,0.217-1.401,0.502-2.05,0.849L6.464,4.005C5.554,4.73,4.73,5.554,4.005,6.464l1.994,4.192c-0.347,0.648-0.632,1.334-0.849,2.05l-4.378,1.557C0.708,14.834,0.667,15.412,0.667,16s0.041,1.165,0.105,1.736l4.378,1.558c0.217,0.715,0.502,1.401,0.849,2.049l-1.994,4.193c0.725,0.909,1.549,1.733,2.459,2.458l4.192-1.993c0.648,0.347,1.334,0.633,2.05,0.851l1.557,4.377c0.571,0.064,1.148,0.104,1.737,0.104c0.588,0,1.165-0.04,1.736-0.104l1.558-4.377c0.715-0.218,1.399-0.504,2.049-0.851l4.193,1.993c0.909-0.725,1.733-1.549,2.458-2.458l-1.993-4.193c0.347-0.647,0.633-1.334,0.851-2.049L31.229,17.736zM16,20.871c-2.69,0-4.872-2.182-4.872-4.871c0-2.69,2.182-4.872,4.872-4.872c2.689,0,4.871,2.182,4.871,4.872C20.871,18.689,18.689,20.871,16,20.871z"></path><title>Link options.</title></g></g></g></g><!--z-index:20--><g   id="j_48" ><path  stroke="#aaaaaa" d="M 1194 1085 L 1194 1385" id="v-523" stroke-width="2" stroke-dasharray="30 30" fill="none" style="opacity: 1;"></path><path  fill="black" stroke="black" d="M 0 0 0 0" transform="matrix(6.123233995736766e-17,1,-1,6.123233995736766e-17,1194,1085)"></path><path  fill="#aaaaaa" stroke="#aaaaaa" d="M 20 0 L 0 10 L 20 20 z" id="v-525" transform="matrix(-1.8369701987210297e-16,-1,1,-1.8369701987210297e-16,1184,1385)" style="opacity: 1;"></path><path  d="M 1194 1085 L 1194 1385" id="v-524" fill="none" style="cursor: auto; pointer-events: visiblepainted;"></path><g ><g id="v-514"  label-idx="0" cursor="move" transform="matrix(1,0,0,1,1194,1235)" style="cursor: default; opacity: 1;"><rect joint-selector="rect" id="v-518" fill="#111111" rx="3" ry="3" pointer-events="none" width="182.65625" height="90.296875" transform="matrix(1,0,0,1,-91.3,-45.2)"></rect><text joint-selector="text" id="v-517" font-size="24px" xml:space="preserve" y="0.8em" fill="#aaaaaa" text-anchor="middle" pointer-events="none" font-family="Open Sans" font-weight="normal" transform="matrix(1,0,0,1,0,-38.7)"><tspan dy="0" >Delivers</tspan><tspan dy="1.2em" x="0" >'PriceCalculated'</tspan><tspan dy="1.2em" x="0" >event</tspan></text></g><g id="v-515"  label-idx="1" cursor="move" transform="matrix(1,0,0,1,1194,1290.199951171875)" style="cursor: default; opacity: 1;"><rect joint-selector="rect" id="v-520" fill="#111111" rx="3" ry="3" pointer-events="none" width="103.21875" height="23.171875" transform="matrix(1,0,0,1,-51.6,-11.6)"></rect><text joint-selector="text" id="v-519" font-size="17px" xml:space="preserve" y="0.8em" fill="#aaaaaa" text-anchor="middle" pointer-events="none" font-family="Open Sans" font-weight="normal" transform="matrix(1,0,0,1,0,-7)"><tspan dy="0" >[JSON/Async]</tspan></text></g><g id="v-516"  label-idx="2" cursor="move" transform="matrix(1,0,0,1,1184,1298.5999755859375)" style="cursor: default; opacity: 1;"><rect joint-selector="rect" id="v-522" fill="#ffffff" rx="3" ry="3"  width="0" height="0" transform="matrix(1,0,0,1,0,0)" display="none"></rect><text joint-selector="text" id="v-521" fill="#000000" font-size="14" text-anchor="middle" pointer-events="none"></text></g></g><g  display="none" style="display: none;"></g><g  id="v-527" display="none"><g  id="v-512"><path  end="source" d="M 26 0 L 0 13 L 26 26 z"></path></g><g  id="v-513"><path  end="target" d="M 26 0 L 0 13 L 26 26 z"></path></g></g><g  id="v-526" display="none"><g  id="v-511" transform="translate(1194, 1125) "><g  event="remove"><circle r="11"></circle><path transform="scale(.8) translate(-16, -16)" d="M24.778,21.419 19.276,15.917 24.777,10.415 21.949,7.585 16.447,13.087 10.945,7.585 8.117,10.415 13.618,15.917 8.116,21.419 10.946,24.248 16.447,18.746 21.948,24.248z"></path><title>Remove link.</title></g><g  event="link:options"><circle r="11" transform="translate(25)"></circle><path fill="white" transform="scale(.55) translate(29, -16)" d="M31.229,17.736c0.064-0.571,0.104-1.148,0.104-1.736s-0.04-1.166-0.104-1.737l-4.377-1.557c-0.218-0.716-0.504-1.401-0.851-2.05l1.993-4.192c-0.725-0.91-1.549-1.734-2.458-2.459l-4.193,1.994c-0.647-0.347-1.334-0.632-2.049-0.849l-1.558-4.378C17.165,0.708,16.588,0.667,16,0.667s-1.166,0.041-1.737,0.105L12.707,5.15c-0.716,0.217-1.401,0.502-2.05,0.849L6.464,4.005C5.554,4.73,4.73,5.554,4.005,6.464l1.994,4.192c-0.347,0.648-0.632,1.334-0.849,2.05l-4.378,1.557C0.708,14.834,0.667,15.412,0.667,16s0.041,1.165,0.105,1.736l4.378,1.558c0.217,0.715,0.502,1.401,0.849,2.049l-1.994,4.193c0.725,0.909,1.549,1.733,2.459,2.458l4.192-1.993c0.648,0.347,1.334,0.633,2.05,0.851l1.557,4.377c0.571,0.064,1.148,0.104,1.737,0.104c0.588,0,1.165-0.04,1.736-0.104l1.558-4.377c0.715-0.218,1.399-0.504,2.049-0.851l4.193,1.993c0.909-0.725,1.733-1.549,2.458-2.458l-1.993-4.193c0.347-0.647,0.633-1.334,0.851-2.049L31.229,17.736zM16,20.871c-2.69,0-4.872-2.182-4.872-4.871c0-2.69,2.182-4.872,4.872-4.872c2.689,0,4.871,2.182,4.871,4.872C20.871,18.689,18.689,20.871,16,20.871z"></path><title>Link options.</title></g></g></g></g><!--z-index:21--></g><g ></g><g ></g><g ></g></g></svg>