<svg xmlns="http://www.w3.org/2000/svg" viewBox="0 0 800 400" preserveAspectRatio="xMidYMid meet">
  <defs>
    <pattern id="grid" width="20" height="20" patternUnits="userSpaceOnUse">
      <path d="M 20 0 L 0 0 0 20" fill="none" stroke="#38bdf8" stroke-width="0.5" opacity="0.1"/>
    </pattern>
    <style>
      .label { font-family: system-ui, sans-serif; font-size: 14px; fill: #f8fafc; text-anchor: middle; }
      .title { font-family: system-ui, sans-serif; font-size: 16px; font-weight: bold; fill: #38bdf8; text-anchor: middle; text-transform: uppercase; letter-spacing: 1px; }
      .box { fill: #0f172a; stroke: #94a3b8; stroke-width: 2; rx: 4; }
      .anchor { fill: #1e293b; stroke: #fbbf24; stroke-width: 2; rx: 8; }
      .hash { fill: #0f172a; stroke: #4ade80; stroke-width: 2; rx: 4; }
      .line { stroke: #94a3b8; stroke-width: 1.5; marker-end: url(#arrow-gray); fill: none; }
    </style>
    <marker id="arrow-gray" markerWidth="10" markerHeight="10" refX="9" refY="3" orient="auto" markerUnits="strokeWidth">
      <path d="M0,0 L0,6 L9,3 z" fill="#94a3b8" />
    </marker>
  </defs>

  <!-- Background -->
  <rect width="800" height="400" fill="#1e293b" />
  <rect width="800" height="400" fill="url(#grid)" />

  <text x="400" y="40" class="title">Integrity Anchor Models</text>

  <!-- Model 1: Binary Integrity -->
  <text x="200" y="80" class="label" font-weight="bold">1. Binary (Bit-level)</text>
  <g transform="translate(100, 120)">
    <rect x="0" y="0" width="200" height="40" class="box" />
    <text x="100" y="25" class="label" font-family="monospace">01011010 1100...</text>
    <text x="100" y="60" class="label" font-size="10">The Bitstream</text>
  </g>
  
  <path d="M200,180 L200,220" class="line" />
  <text x="250" y="205" class="label" fill="#94a3b8" font-size="11">Direct Hash</text>

  <g transform="translate(125, 240)">
    <rect x="0" y="0" width="150" height="50" class="hash" />
    <text x="75" y="30" class="label" fill="#4ade80" font-weight="bold">IDENTIFIER</text>
  </g>
  <text x="200" y="320" class="label" font-size="11" font-style="italic">"Truth is in the Ink"</text>


  <!-- Divider -->
  <line x1="400" y1="60" x2="400" y2="350" stroke="#334155" stroke-width="2" stroke-dasharray="5,5" />


  <!-- Model 2: Semantic Integrity -->
  <text x="600" y="80" class="label" font-weight="bold">2. Semantic (Object-level)</text>
  <g transform="translate(500, 120)">
    <rect x="0" y="0" width="200" height="40" class="box" opacity="0.5" />
    <text x="100" y="25" class="label" font-family="monospace">01011010 1100...</text>
  </g>

  <path d="M600,160 L600,200" class="line" />
  <text x="660" y="185" class="label" fill="#fbbf24" font-size="11">Decoder Filter</text>

  <g transform="translate(525, 200)">
    <rect x="0" y="0" width="150" height="50" class="anchor" />
    <text x="75" y="30" class="label" font-weight="bold">DATA MODEL</text>
  </g>

  <path d="M600,250 L600,280" class="line" />

  <g transform="translate(525, 300)">
    <rect x="0" y="0" width="150" height="50" class="hash" />
    <text x="75" y="30" class="label" fill="#4ade80" font-weight="bold">IDENTIFIER</text>
  </g>
  <text x="600" y="375" class="label" font-size="11" font-style="italic">"Truth is in the Meaning"</text>

</svg>