<?xml version="1.0" encoding="UTF-8" standalone="no"?>
<!DOCTYPE svg PUBLIC "-//W3C//DTD SVG 1.1//EN"
 "http://www.w3.org/Graphics/SVG/1.1/DTD/svg11.dtd">
<!-- Generated by graphviz version 14.0.1 (20251006.0113)
 -->
<!-- Title: G Pages: 1 -->
<svg width="601pt" height="389pt"
 viewBox="0.00 0.00 601.00 389.00" xmlns="http://www.w3.org/2000/svg" xmlns:xlink="http://www.w3.org/1999/xlink">
<g id="graph0" class="graph" transform="scale(1 1) rotate(0) translate(4 384.5)">
<title>G</title>
<g id="clust1" class="cluster">
<title>cluster_functional</title>
<polygon fill="#1e1e1e" stroke="#b0b0b0" points="8,-8 8,-372.5 328,-372.5 328,-8 8,-8"/>
<text xml:space="preserve" text-anchor="middle" x="168" y="-353.3" font-family="sans-serif" font-size="16.00" fill="#e0e0e0">Functional Decomposition (The Flowchart)</text>
</g>
<g id="clust2" class="cluster">
<title>cluster_information_hiding</title>
<polygon fill="#1e1e1e" stroke="#b0b0b0" points="336,-80 336,-372.5 585,-372.5 585,-80 336,-80"/>
<text xml:space="preserve" text-anchor="middle" x="460.5" y="-353.3" font-family="sans-serif" font-size="16.00" fill="#e0e0e0">Information Hiding (The Secrets)</text>
</g>
<!-- A -->
<g id="node1" class="node">
<title>A</title>
<polygon fill="#1e1e1e" stroke="#b0b0b0" points="213.88,-340 122.12,-340 122.12,-304 213.88,-304 213.88,-340"/>
<text xml:space="preserve" text-anchor="middle" x="168" y="-316.98" font-family="sans-serif" font-size="12.00" fill="#e0e0e0">Validate Order</text>
</g>
<!-- B -->
<g id="node2" class="node">
<title>B</title>
<polygon fill="#1e1e1e" stroke="#b0b0b0" points="215.75,-268 120.25,-268 120.25,-232 215.75,-232 215.75,-268"/>
<text xml:space="preserve" text-anchor="middle" x="168" y="-244.97" font-family="sans-serif" font-size="12.00" fill="#e0e0e0">Calculate Total</text>
</g>
<!-- A&#45;&gt;B -->
<g id="edge1" class="edge">
<title>A&#45;&gt;B</title>
<path fill="none" stroke="#b0b0b0" d="M168,-303.7C168,-296.41 168,-287.73 168,-279.54"/>
<polygon fill="#b0b0b0" stroke="#b0b0b0" points="171.5,-279.62 168,-269.62 164.5,-279.62 171.5,-279.62"/>
</g>
<!-- C -->
<g id="node3" class="node">
<title>C</title>
<polygon fill="#1e1e1e" stroke="#b0b0b0" points="222.88,-196 113.12,-196 113.12,-160 222.88,-160 222.88,-196"/>
<text xml:space="preserve" text-anchor="middle" x="168" y="-172.97" font-family="sans-serif" font-size="12.00" fill="#e0e0e0">Process Payment</text>
</g>
<!-- B&#45;&gt;C -->
<g id="edge2" class="edge">
<title>B&#45;&gt;C</title>
<path fill="none" stroke="#b0b0b0" d="M168,-231.7C168,-224.41 168,-215.73 168,-207.54"/>
<polygon fill="#b0b0b0" stroke="#b0b0b0" points="171.5,-207.62 168,-197.62 164.5,-207.62 171.5,-207.62"/>
</g>
<!-- D -->
<g id="node4" class="node">
<title>D</title>
<polygon fill="#1e1e1e" stroke="#b0b0b0" points="221.38,-124 114.62,-124 114.62,-88 221.38,-88 221.38,-124"/>
<text xml:space="preserve" text-anchor="middle" x="168" y="-100.97" font-family="sans-serif" font-size="12.00" fill="#e0e0e0">Update Inventory</text>
</g>
<!-- C&#45;&gt;D -->
<g id="edge3" class="edge">
<title>C&#45;&gt;D</title>
<path fill="none" stroke="#b0b0b0" d="M168,-159.7C168,-152.41 168,-143.73 168,-135.54"/>
<polygon fill="#b0b0b0" stroke="#b0b0b0" points="171.5,-135.62 168,-125.62 164.5,-135.62 171.5,-135.62"/>
</g>
<!-- E -->
<g id="node5" class="node">
<title>E</title>
<polygon fill="#1e1e1e" stroke="#b0b0b0" points="204.88,-52 131.12,-52 131.12,-16 204.88,-16 204.88,-52"/>
<text xml:space="preserve" text-anchor="middle" x="168" y="-28.98" font-family="sans-serif" font-size="12.00" fill="#e0e0e0">Ship Order</text>
</g>
<!-- D&#45;&gt;E -->
<g id="edge4" class="edge">
<title>D&#45;&gt;E</title>
<path fill="none" stroke="#b0b0b0" d="M168,-87.7C168,-80.41 168,-71.73 168,-63.54"/>
<polygon fill="#b0b0b0" stroke="#b0b0b0" points="171.5,-63.62 168,-53.62 164.5,-63.62 171.5,-63.62"/>
</g>
<!-- P -->
<g id="node6" class="node">
<title>P</title>
<polygon fill="#1e1e1e" stroke="#b0b0b0" points="558.38,-340 361.62,-340 361.62,-304 558.38,-304 558.38,-340"/>
<text xml:space="preserve" text-anchor="start" x="397" y="-322.7" font-family="sans-serif" font-size="12.00" fill="#e0e0e0"> &#160;&#160;&#160;&#160;&#160;&#160;&#160;&#160;&#160;&#160;&#160;</text>
<text xml:space="preserve" text-anchor="start" x="433" y="-322.7" font-family="sans-serif" font-size="14.00" fill="#e0e0e0">Pricing Module</text>
<text xml:space="preserve" text-anchor="start" x="369.62" y="-310.6" font-family="sans-serif" font-size="12.00" fill="#e0e0e0"> &#160;&#160;&#160;&#160;&#160;&#160;&#160;&#160;&#160;&#160;&#160;</text>
<text xml:space="preserve" text-anchor="start" x="405.62" y="-310.6" font-family="sans-serif" font-style="italic" font-size="10.00" fill="#b0b0b0">Secret: Tax/Discount Rules</text>
<text xml:space="preserve" text-anchor="start" x="526.38" y="-310.6" font-family="sans-serif" font-size="12.00" fill="#e0e0e0"> &#160;&#160;&#160;&#160;&#160;&#160;&#160;</text>
</g>
<!-- PG -->
<g id="node7" class="node">
<title>PG</title>
<polygon fill="#1e1e1e" stroke="#b0b0b0" points="556.88,-268 363.12,-268 363.12,-232 556.88,-232 556.88,-268"/>
<text xml:space="preserve" text-anchor="start" x="386.12" y="-250.7" font-family="sans-serif" font-size="12.00" fill="#e0e0e0"> &#160;&#160;&#160;&#160;&#160;&#160;&#160;&#160;&#160;&#160;&#160;</text>
<text xml:space="preserve" text-anchor="start" x="422.12" y="-250.7" font-family="sans-serif" font-size="14.00" fill="#e0e0e0">Payment Gateway</text>
<text xml:space="preserve" text-anchor="start" x="371.12" y="-238.6" font-family="sans-serif" font-size="12.00" fill="#e0e0e0"> &#160;&#160;&#160;&#160;&#160;&#160;&#160;&#160;&#160;&#160;&#160;</text>
<text xml:space="preserve" text-anchor="start" x="407.12" y="-238.6" font-family="sans-serif" font-style="italic" font-size="10.00" fill="#b0b0b0">Secret: Razorpay vs PayU</text>
<text xml:space="preserve" text-anchor="start" x="524.88" y="-238.6" font-family="sans-serif" font-size="12.00" fill="#e0e0e0"> &#160;&#160;&#160;&#160;&#160;&#160;&#160;</text>
</g>
<!-- P&#45;&gt;PG -->
<!-- I -->
<g id="node8" class="node">
<title>I</title>
<polygon fill="#1e1e1e" stroke="#b0b0b0" points="561.38,-196 358.62,-196 358.62,-160 561.38,-160 561.38,-196"/>
<text xml:space="preserve" text-anchor="start" x="414.25" y="-178.7" font-family="sans-serif" font-size="12.00" fill="#e0e0e0"> &#160;&#160;&#160;&#160;&#160;&#160;&#160;&#160;&#160;&#160;&#160;</text>
<text xml:space="preserve" text-anchor="start" x="450.25" y="-178.7" font-family="sans-serif" font-size="14.00" fill="#e0e0e0">Inventory</text>
<text xml:space="preserve" text-anchor="start" x="366.62" y="-166.6" font-family="sans-serif" font-size="12.00" fill="#e0e0e0"> &#160;&#160;&#160;&#160;&#160;&#160;&#160;&#160;&#160;&#160;&#160;</text>
<text xml:space="preserve" text-anchor="start" x="402.62" y="-166.6" font-family="sans-serif" font-style="italic" font-size="10.00" fill="#b0b0b0">Secret: Stock Tracking Logic</text>
<text xml:space="preserve" text-anchor="start" x="529.38" y="-166.6" font-family="sans-serif" font-size="12.00" fill="#e0e0e0"> &#160;&#160;&#160;&#160;&#160;&#160;&#160;</text>
</g>
<!-- PG&#45;&gt;I -->
<!-- S -->
<g id="node9" class="node">
<title>S</title>
<polygon fill="#1e1e1e" stroke="#b0b0b0" points="564.75,-124 355.25,-124 355.25,-88 564.75,-88 564.75,-124"/>
<text xml:space="preserve" text-anchor="start" x="415.75" y="-106.7" font-family="sans-serif" font-size="12.00" fill="#e0e0e0"> &#160;&#160;&#160;&#160;&#160;&#160;&#160;&#160;&#160;&#160;&#160;</text>
<text xml:space="preserve" text-anchor="start" x="451.75" y="-106.7" font-family="sans-serif" font-size="14.00" fill="#e0e0e0">Shipping</text>
<text xml:space="preserve" text-anchor="start" x="363.25" y="-94.6" font-family="sans-serif" font-size="12.00" fill="#e0e0e0"> &#160;&#160;&#160;&#160;&#160;&#160;&#160;&#160;&#160;&#160;&#160;</text>
<text xml:space="preserve" text-anchor="start" x="399.25" y="-94.6" font-family="sans-serif" font-style="italic" font-size="10.00" fill="#b0b0b0">Secret: Delhivery vs Blue Dart</text>
<text xml:space="preserve" text-anchor="start" x="532.75" y="-94.6" font-family="sans-serif" font-size="12.00" fill="#e0e0e0"> &#160;&#160;&#160;&#160;&#160;&#160;&#160;</text>
</g>
<!-- I&#45;&gt;S -->
</g>
</svg>
