<svg xmlns="http://www.w3.org/2000/svg" xmlns:xlink="http://www.w3.org/1999/xlink" version="1.1" viewBox="0 0 1640 3211" style="background: #111111"><defs><style>@import url(https://fonts.googleapis.com/css?family=Open+Sans:400,700);</style></defs><defs joint-selector="defs"></defs><g joint-selector="layers" transform="matrix(1,0,0,1,0,0)" ><g ></g><g ><!--z-index:0--><!--z-index:1--><!--z-index:2--><!--z-index:3--><!--z-index:4--><!--z-index:5--><!--z-index:6--><!--z-index:7--><!--z-index:8--><!--z-index:9--><!--z-index:10--><!--z-index:11--><!--z-index:12--><!--z-index:13--><!--z-index:14--><!--z-index:15--><!--z-index:16--><!--z-index:17--><!--z-index:18--><!--z-index:19--><!--z-index:20--><!--z-index:21--><!--z-index:22--><!--z-index:23--><g   id="j_110"  transform="translate(20,3174.6)"><g id="v-1247"><text  id="v-1248" font-size="22px" xml:space="preserve" y="0.8em" font-weight="normal" text-anchor="start" fill="#777777" pointer-events="none" display="block" font-family="Open Sans"><tspan dy="0"  display="block">Tuesday, 7 October 2025 at 5:38 PM India Standard Time</tspan></text></g></g><!--z-index:24--><g   id="j_109"  transform="translate(20,3148.2)"><g id="v-1245"><text  id="v-1246" font-size="22px" xml:space="preserve" y="0.8em" font-weight="normal" text-anchor="start" fill="#bbbbbb" pointer-events="none" display="block" font-family="Open Sans"><tspan dy="0"  display="block">The Quality Attribute Scenario (QAS) Canvas, with an example for CityPulse Scalability.</tspan></text></g></g><!--z-index:25--><g   id="j_108"  transform="translate(20,3105)"><g id="v-1243"><text  id="v-1244" font-size="36px" xml:space="preserve" y="0.8em" font-weight="normal" text-anchor="start" fill="#bbbbbb" pointer-events="none" display="block" font-family="Open Sans"><tspan dy="0"  display="block">[Container] Quality Attribute Scenario Canvas</tspan></text></g></g><!--z-index:26--><g   id="j_112"  transform="translate(200,151)" style=""><g id="v-1262"><rect  id="v-1263" width="1240" height="2811" rx="0" ry="0" fill="#111111" stroke="#c7c7c7" stroke-width="1" stroke-dasharray="20,20" pointer-events="none"></rect><text  id="v-1264" font-size="24px" xml:space="preserve" y="2772" font-weight="normal" fill="#c7c7c7" text-anchor="start" pointer-events="visible" font-family="Open Sans" transform="matrix(1,0,0,1,15,0)"><tspan dy="0" >Quality Attribute Scenario Canvas</tspan></text><text  id="v-1265" font-size="17px" xml:space="preserve" y="2796" font-weight="normal" fill="#c7c7c7" text-anchor="start" pointer-events="visible" font-family="Open Sans" transform="matrix(1,0,0,1,15,0)"><tspan dy="0" >[Software System]</tspan></text><image  id="v-1266" pointer-events="visible"></image></g></g><!--z-index:27--><g   id="j_111"  transform="translate(970,171)" style=""><g  id="v-1255" style="opacity: 1;"><rect  id="v-1256" rx="1" ry="1" stroke="#c7c7c7" stroke-width="2" pointer-events="visiblePainted" fill="#dddddd" width="450" height="300" style="fill: rgb(221, 221, 221); stroke: rgb(199, 199, 199);"></rect><text  id="v-1257" font-size="34" xml:space="preserve" y="0.8em" font-weight="bold" text-anchor="middle" pointer-events="visible" font-family="Open Sans" fill="#000000" transform="matrix(1,0,0,1,225,102.5)" style="fill: rgb(0, 0, 0);"><tspan dy="0" >Source of Stimulus</tspan></text><text  id="v-1258" font-size="17" xml:space="preserve" y="0.8em" text-anchor="middle" font-family="Open Sans" fill="#000000" transform="matrix(1,0,0,1,225,143.3)" style="fill: rgb(0, 0, 0);"><tspan dy="0" >[Container]</tspan></text><text  id="v-1259" font-size="24" xml:space="preserve" y="0.8em" text-anchor="middle" font-family="Open Sans" fill="#000000" transform="matrix(1,0,0,1,225,173.7)" style="fill: rgb(0, 0, 0);"><tspan dy="0" >The entity generating the action.</tspan></text><g  id="v-1260" color="#000000" transform="matrix(1,0,0,1,222.5,268)" display="none" style="fill: rgb(0, 0, 0);"><g ></g><g ></g><g ></g><g ></g></g><image  id="v-1261"></image></g></g><!--z-index:28--><g   id="j_113"  transform="translate(970,771)" style=""><g  id="v-1267" style="opacity: 1;"><rect  id="v-1268" rx="1" ry="1" stroke="#c7c7c7" stroke-width="2" pointer-events="visiblePainted" fill="#dddddd" width="450" height="300" style="fill: rgb(221, 221, 221); stroke: rgb(199, 199, 199);"></rect><text  id="v-1269" font-size="34" xml:space="preserve" y="0.8em" font-weight="bold" text-anchor="middle" pointer-events="visible" font-family="Open Sans" fill="#000000" transform="matrix(1,0,0,1,225,102.5)" style="fill: rgb(0, 0, 0);"><tspan dy="0" >Stimulus</tspan></text><text  id="v-1270" font-size="17" xml:space="preserve" y="0.8em" text-anchor="middle" font-family="Open Sans" fill="#000000" transform="matrix(1,0,0,1,225,143.3)" style="fill: rgb(0, 0, 0);"><tspan dy="0" >[Container]</tspan></text><text  id="v-1271" font-size="24" xml:space="preserve" y="0.8em" text-anchor="middle" font-family="Open Sans" fill="#000000" transform="matrix(1,0,0,1,225,173.7)" style="fill: rgb(0, 0, 0);"><tspan dy="0" >The action or event.</tspan></text><g  id="v-1272" color="#000000" transform="matrix(1,0,0,1,222.5,268)" display="none" style="fill: rgb(0, 0, 0);"><g ></g><g ></g><g ></g><g ></g></g><image  id="v-1273"></image></g></g><!--z-index:29--><g   id="j_114"  transform="translate(970,1371)" style=""><g  id="v-1277" style="opacity: 1;"><rect  id="v-1278" rx="1" ry="1" stroke="#c7c7c7" stroke-width="2" pointer-events="visiblePainted" fill="#dddddd" width="450" height="300" style="fill: rgb(221, 221, 221); stroke: rgb(199, 199, 199);"></rect><text  id="v-1279" font-size="34" xml:space="preserve" y="0.8em" font-weight="bold" text-anchor="middle" pointer-events="visible" font-family="Open Sans" fill="#000000" transform="matrix(1,0,0,1,225,88.1)" style="fill: rgb(0, 0, 0);"><tspan dy="0" >Environment</tspan></text><text  id="v-1280" font-size="17" xml:space="preserve" y="0.8em" text-anchor="middle" font-family="Open Sans" fill="#000000" transform="matrix(1,0,0,1,225,128.9)" style="fill: rgb(0, 0, 0);"><tspan dy="0" >[Container]</tspan></text><text  id="v-1281" font-size="24" xml:space="preserve" y="0.8em" text-anchor="middle" font-family="Open Sans" fill="#000000" transform="matrix(1,0,0,1,225,159.3)" style="fill: rgb(0, 0, 0);"><tspan dy="0" >The conditions when the action</tspan><tspan dy="1.2em" x="0" >occurs.</tspan></text><g  id="v-1282" color="#000000" transform="matrix(1,0,0,1,222.5,268)" display="none" style="fill: rgb(0, 0, 0);"><g ></g><g ></g><g ></g><g ></g></g><image  id="v-1283"></image></g></g><!--z-index:30--><g   id="j_115"  transform="translate(970,1971)" style=""><g  id="v-1287" style="opacity: 1;"><rect  id="v-1288" rx="1" ry="1" stroke="#c7c7c7" stroke-width="2" pointer-events="visiblePainted" fill="#dddddd" width="450" height="300" style="fill: rgb(221, 221, 221); stroke: rgb(199, 199, 199);"></rect><text  id="v-1289" font-size="34" xml:space="preserve" y="0.8em" font-weight="bold" text-anchor="middle" pointer-events="visible" font-family="Open Sans" fill="#000000" transform="matrix(1,0,0,1,225,102.5)" style="fill: rgb(0, 0, 0);"><tspan dy="0" >Response</tspan></text><text  id="v-1290" font-size="17" xml:space="preserve" y="0.8em" text-anchor="middle" font-family="Open Sans" fill="#000000" transform="matrix(1,0,0,1,225,143.3)" style="fill: rgb(0, 0, 0);"><tspan dy="0" >[Container]</tspan></text><text  id="v-1291" font-size="24" xml:space="preserve" y="0.8em" text-anchor="middle" font-family="Open Sans" fill="#000000" transform="matrix(1,0,0,1,225,173.7)" style="fill: rgb(0, 0, 0);"><tspan dy="0" >How the system should react.</tspan></text><g  id="v-1292" color="#000000" transform="matrix(1,0,0,1,222.5,268)" display="none" style="fill: rgb(0, 0, 0);"><g ></g><g ></g><g ></g><g ></g></g><image  id="v-1293"></image></g></g><!--z-index:31--><g   id="j_116"  transform="translate(970,2571)" style=""><g  id="v-1300" style="opacity: 1;"><rect  id="v-1301" rx="1" ry="1" stroke="#c7c7c7" stroke-width="2" pointer-events="visiblePainted" fill="#dddddd" width="450" height="300" style="fill: rgb(221, 221, 221); stroke: rgb(199, 199, 199);"></rect><text  id="v-1302" font-size="34" xml:space="preserve" y="0.8em" font-weight="bold" text-anchor="middle" pointer-events="visible" font-family="Open Sans" fill="#000000" transform="matrix(1,0,0,1,225,88.1)" style="fill: rgb(0, 0, 0);"><tspan dy="0" >Response Measure</tspan></text><text  id="v-1303" font-size="17" xml:space="preserve" y="0.8em" text-anchor="middle" font-family="Open Sans" fill="#000000" transform="matrix(1,0,0,1,225,128.9)" style="fill: rgb(0, 0, 0);"><tspan dy="0" >[Container]</tspan></text><text  id="v-1304" font-size="24" xml:space="preserve" y="0.8em" text-anchor="middle" font-family="Open Sans" fill="#000000" transform="matrix(1,0,0,1,225,159.3)" style="fill: rgb(0, 0, 0);"><tspan dy="0" >A quantifiable metric that defines</tspan><tspan dy="1.2em" x="0" >success.</tspan></text><g  id="v-1305" color="#000000" transform="matrix(1,0,0,1,222.5,268)" display="none" style="fill: rgb(0, 0, 0);"><g ></g><g ></g><g ></g><g ></g></g><image  id="v-1306"></image></g></g><!--z-index:32--><g   id="j_117"  transform="translate(220,171)" style=""><g  id="v-1310" style="opacity: 1;"><rect  id="v-1311" rx="1" ry="1" stroke="#c7c7c7" stroke-width="2" pointer-events="visiblePainted" fill="#dddddd" width="450" height="300" style="fill: rgb(221, 221, 221); stroke: rgb(199, 199, 199);"></rect><text  id="v-1312" font-size="34" xml:space="preserve" y="0.8em" font-weight="bold" text-anchor="middle" pointer-events="visible" font-family="Open Sans" fill="#000000" transform="matrix(1,0,0,1,225,102.5)" style="fill: rgb(0, 0, 0);"><tspan dy="0" >Example Source</tspan></text><text  id="v-1313" font-size="17" xml:space="preserve" y="0.8em" text-anchor="middle" font-family="Open Sans" fill="#000000" transform="matrix(1,0,0,1,225,143.3)" style="fill: rgb(0, 0, 0);"><tspan dy="0" >[Container]</tspan></text><text  id="v-1314" font-size="24" xml:space="preserve" y="0.8em" text-anchor="middle" font-family="Open Sans" fill="#000000" transform="matrix(1,0,0,1,225,173.7)" style="fill: rgb(0, 0, 0);"><tspan dy="0" >10,000 concurrent users</tspan></text><g  id="v-1315" color="#000000" transform="matrix(1,0,0,1,222.5,268)" display="none" style="fill: rgb(0, 0, 0);"><g ></g><g ></g><g ></g><g ></g></g><image  id="v-1316"></image></g></g><!--z-index:33--><g   id="j_118"  transform="translate(220,771)" style=""><g  id="v-1323" style="opacity: 1;"><rect  id="v-1324" rx="1" ry="1" stroke="#c7c7c7" stroke-width="2" pointer-events="visiblePainted" fill="#dddddd" width="450" height="300" style="fill: rgb(221, 221, 221); stroke: rgb(199, 199, 199);"></rect><text  id="v-1325" font-size="34" xml:space="preserve" y="0.8em" font-weight="bold" text-anchor="middle" pointer-events="visible" font-family="Open Sans" fill="#000000" transform="matrix(1,0,0,1,225,102.5)" style="fill: rgb(0, 0, 0);"><tspan dy="0" >Example Stimulus</tspan></text><text  id="v-1326" font-size="17" xml:space="preserve" y="0.8em" text-anchor="middle" font-family="Open Sans" fill="#000000" transform="matrix(1,0,0,1,225,143.3)" style="fill: rgb(0, 0, 0);"><tspan dy="0" >[Container]</tspan></text><text  id="v-1327" font-size="24" xml:space="preserve" y="0.8em" text-anchor="middle" font-family="Open Sans" fill="#000000" transform="matrix(1,0,0,1,225,173.7)" style="fill: rgb(0, 0, 0);"><tspan dy="0" >Attempt to purchase tickets</tspan></text><g  id="v-1328" color="#000000" transform="matrix(1,0,0,1,222.5,268)" display="none" style="fill: rgb(0, 0, 0);"><g ></g><g ></g><g ></g><g ></g></g><image  id="v-1329"></image></g></g><!--z-index:34--><g   id="j_119"  transform="translate(220,1371)" style=""><g  id="v-1333" style="opacity: 1;"><rect  id="v-1334" rx="1" ry="1" stroke="#c7c7c7" stroke-width="2" pointer-events="visiblePainted" fill="#dddddd" width="450" height="300" style="fill: rgb(221, 221, 221); stroke: rgb(199, 199, 199);"></rect><text  id="v-1335" font-size="34" xml:space="preserve" y="0.8em" font-weight="bold" text-anchor="middle" pointer-events="visible" font-family="Open Sans" fill="#000000" transform="matrix(1,0,0,1,225,102.5)" style="fill: rgb(0, 0, 0);"><tspan dy="0" >Example Environment</tspan></text><text  id="v-1336" font-size="17" xml:space="preserve" y="0.8em" text-anchor="middle" font-family="Open Sans" fill="#000000" transform="matrix(1,0,0,1,225,143.3)" style="fill: rgb(0, 0, 0);"><tspan dy="0" >[Container]</tspan></text><text  id="v-1337" font-size="24" xml:space="preserve" y="0.8em" text-anchor="middle" font-family="Open Sans" fill="#000000" transform="matrix(1,0,0,1,225,173.7)" style="fill: rgb(0, 0, 0);"><tspan dy="0" >During a flash sale</tspan></text><g  id="v-1338" color="#000000" transform="matrix(1,0,0,1,222.5,268)" display="none" style="fill: rgb(0, 0, 0);"><g ></g><g ></g><g ></g><g ></g></g><image  id="v-1339"></image></g></g><!--z-index:35--><g   id="j_120"  transform="translate(220,1971)" style=""><g  id="v-1343" style="opacity: 1;"><rect  id="v-1344" rx="1" ry="1" stroke="#c7c7c7" stroke-width="2" pointer-events="visiblePainted" fill="#dddddd" width="450" height="300" style="fill: rgb(221, 221, 221); stroke: rgb(199, 199, 199);"></rect><text  id="v-1345" font-size="34" xml:space="preserve" y="0.8em" font-weight="bold" text-anchor="middle" pointer-events="visible" font-family="Open Sans" fill="#000000" transform="matrix(1,0,0,1,225,102.5)" style="fill: rgb(0, 0, 0);"><tspan dy="0" >Example Response</tspan></text><text  id="v-1346" font-size="17" xml:space="preserve" y="0.8em" text-anchor="middle" font-family="Open Sans" fill="#000000" transform="matrix(1,0,0,1,225,143.3)" style="fill: rgb(0, 0, 0);"><tspan dy="0" >[Container]</tspan></text><text  id="v-1347" font-size="24" xml:space="preserve" y="0.8em" text-anchor="middle" font-family="Open Sans" fill="#000000" transform="matrix(1,0,0,1,225,173.7)" style="fill: rgb(0, 0, 0);"><tspan dy="0" >Process all purchases</tspan></text><g  id="v-1348" color="#000000" transform="matrix(1,0,0,1,222.5,268)" display="none" style="fill: rgb(0, 0, 0);"><g ></g><g ></g><g ></g><g ></g></g><image  id="v-1349"></image></g></g><!--z-index:36--><g   id="j_121"  transform="translate(220,2571)" style=""><g  id="v-1350" style="opacity: 1;"><rect  id="v-1351" rx="1" ry="1" stroke="#c7c7c7" stroke-width="2" pointer-events="visiblePainted" fill="#dddddd" width="450" height="300" style="fill: rgb(221, 221, 221); stroke: rgb(199, 199, 199);"></rect><text  id="v-1352" font-size="34" xml:space="preserve" y="0.8em" font-weight="bold" text-anchor="middle" pointer-events="visible" font-family="Open Sans" fill="#000000" transform="matrix(1,0,0,1,225,102.5)" style="fill: rgb(0, 0, 0);"><tspan dy="0" >Example Measure</tspan></text><text  id="v-1353" font-size="17" xml:space="preserve" y="0.8em" text-anchor="middle" font-family="Open Sans" fill="#000000" transform="matrix(1,0,0,1,225,143.3)" style="fill: rgb(0, 0, 0);"><tspan dy="0" >[Container]</tspan></text><text  id="v-1354" font-size="24" xml:space="preserve" y="0.8em" text-anchor="middle" font-family="Open Sans" fill="#000000" transform="matrix(1,0,0,1,225,173.7)" style="fill: rgb(0, 0, 0);"><tspan dy="0" >&gt;1,000 purchases/sec</tspan></text><g  id="v-1355" color="#000000" transform="matrix(1,0,0,1,222.5,268)" display="none" style="fill: rgb(0, 0, 0);"><g ></g><g ></g><g ></g><g ></g></g><image  id="v-1356"></image></g></g><!--z-index:37--><g   id="j_122" ><path  stroke="#707070" d="M 1195 471 L 1195 771" id="v-1366" stroke-width="2" fill="none" style="opacity: 1;"></path><path  fill="black" stroke="black" d="M 0 0 0 0" transform="matrix(6.123233995736766e-17,1,-1,6.123233995736766e-17,1195,471)"></path><path  fill="#707070" stroke="#707070" d="M 20 0 L 0 10 L 20 20 z" id="v-1368" transform="matrix(-1.8369701987210297e-16,-1,1,-1.8369701987210297e-16,1185,771)" style="opacity: 1;"></path><path  d="M 1195 471 L 1195 771" id="v-1367" fill="none" style="cursor: auto; pointer-events: visiblepainted;"></path><g ><g id="v-1360"  label-idx="0" cursor="move" transform="matrix(1,0,0,1,1195,621)" style="cursor: default; opacity: 1;"><rect joint-selector="rect" id="v-1363" fill="#111111" rx="3" ry="3" pointer-events="none" width="0" height="0" transform="matrix(1,0,0,1,0,0)"></rect><text joint-selector="text" id="v-1362" font-size="24px" xml:space="preserve" display="none" y="0.8em" fill="#707070" text-anchor="middle" pointer-events="none" font-family="Open Sans" font-weight="normal"><tspan dy="0" style="fill-opacity: 0; stroke-opacity: 0;" >-</tspan></text></g><g id="v-1361"  label-idx="1" cursor="move" transform="matrix(1,0,0,1,1185,633)" style="cursor: default; opacity: 1;"><rect joint-selector="rect" id="v-1365" fill="#ffffff" rx="3" ry="3"  width="0" height="0" transform="matrix(1,0,0,1,0,0)" display="none"></rect><text joint-selector="text" id="v-1364" fill="#000000" font-size="14" text-anchor="middle" pointer-events="none"></text></g></g><g  display="none" style="display: none;"></g><g  id="v-1370" display="none"><g  id="v-1358"><path  end="source" d="M 26 0 L 0 13 L 26 26 z"></path></g><g  id="v-1359"><path  end="target" d="M 26 0 L 0 13 L 26 26 z"></path></g></g><g  id="v-1369" display="none"><g  id="v-1357" transform="translate(1195, 511) "><g  event="remove"><circle r="11"></circle><path transform="scale(.8) translate(-16, -16)" d="M24.778,21.419 19.276,15.917 24.777,10.415 21.949,7.585 16.447,13.087 10.945,7.585 8.117,10.415 13.618,15.917 8.116,21.419 10.946,24.248 16.447,18.746 21.948,24.248z"></path><title>Remove link.</title></g><g  event="link:options"><circle r="11" transform="translate(25)"></circle><path fill="white" transform="scale(.55) translate(29, -16)" d="M31.229,17.736c0.064-0.571,0.104-1.148,0.104-1.736s-0.04-1.166-0.104-1.737l-4.377-1.557c-0.218-0.716-0.504-1.401-0.851-2.05l1.993-4.192c-0.725-0.91-1.549-1.734-2.458-2.459l-4.193,1.994c-0.647-0.347-1.334-0.632-2.049-0.849l-1.558-4.378C17.165,0.708,16.588,0.667,16,0.667s-1.166,0.041-1.737,0.105L12.707,5.15c-0.716,0.217-1.401,0.502-2.05,0.849L6.464,4.005C5.554,4.73,4.73,5.554,4.005,6.464l1.994,4.192c-0.347,0.648-0.632,1.334-0.849,2.05l-4.378,1.557C0.708,14.834,0.667,15.412,0.667,16s0.041,1.165,0.105,1.736l4.378,1.558c0.217,0.715,0.502,1.401,0.849,2.049l-1.994,4.193c0.725,0.909,1.549,1.733,2.459,2.458l4.192-1.993c0.648,0.347,1.334,0.633,2.05,0.851l1.557,4.377c0.571,0.064,1.148,0.104,1.737,0.104c0.588,0,1.165-0.04,1.736-0.104l1.558-4.377c0.715-0.218,1.399-0.504,2.049-0.851l4.193,1.993c0.909-0.725,1.733-1.549,2.458-2.458l-1.993-4.193c0.347-0.647,0.633-1.334,0.851-2.049L31.229,17.736zM16,20.871c-2.69,0-4.872-2.182-4.872-4.871c0-2.69,2.182-4.872,4.872-4.872c2.689,0,4.871,2.182,4.871,4.872C20.871,18.689,18.689,20.871,16,20.871z"></path><title>Link options.</title></g></g></g></g><!--z-index:38--><g   id="j_123" ><path  stroke="#707070" d="M 1195 1071 L 1195 1371" id="v-1380" stroke-width="2" fill="none" style="opacity: 1;"></path><path  fill="black" stroke="black" d="M 0 0 0 0" transform="matrix(6.123233995736766e-17,1,-1,6.123233995736766e-17,1195,1071)"></path><path  fill="#707070" stroke="#707070" d="M 20 0 L 0 10 L 20 20 z" id="v-1382" transform="matrix(-1.8369701987210297e-16,-1,1,-1.8369701987210297e-16,1185,1371)" style="opacity: 1;"></path><path  d="M 1195 1071 L 1195 1371" id="v-1381" fill="none" style="cursor: auto; pointer-events: visiblepainted;"></path><g ><g id="v-1374"  label-idx="0" cursor="move" transform="matrix(1,0,0,1,1195,1221)" style="cursor: default; opacity: 1;"><rect joint-selector="rect" id="v-1377" fill="#111111" rx="3" ry="3" pointer-events="none" width="0" height="0" transform="matrix(1,0,0,1,0,0)"></rect><text joint-selector="text" id="v-1376" font-size="24px" xml:space="preserve" display="none" y="0.8em" fill="#707070" text-anchor="middle" pointer-events="none" font-family="Open Sans" font-weight="normal"><tspan dy="0" style="fill-opacity: 0; stroke-opacity: 0;" >-</tspan></text></g><g id="v-1375"  label-idx="1" cursor="move" transform="matrix(1,0,0,1,1185,1233)" style="cursor: default; opacity: 1;"><rect joint-selector="rect" id="v-1379" fill="#ffffff" rx="3" ry="3"  width="0" height="0" transform="matrix(1,0,0,1,0,0)" display="none"></rect><text joint-selector="text" id="v-1378" fill="#000000" font-size="14" text-anchor="middle" pointer-events="none"></text></g></g><g  display="none" style="display: none;"></g><g  id="v-1384" display="none"><g  id="v-1372"><path  end="source" d="M 26 0 L 0 13 L 26 26 z"></path></g><g  id="v-1373"><path  end="target" d="M 26 0 L 0 13 L 26 26 z"></path></g></g><g  id="v-1383" display="none"><g  id="v-1371" transform="translate(1195, 1111) "><g  event="remove"><circle r="11"></circle><path transform="scale(.8) translate(-16, -16)" d="M24.778,21.419 19.276,15.917 24.777,10.415 21.949,7.585 16.447,13.087 10.945,7.585 8.117,10.415 13.618,15.917 8.116,21.419 10.946,24.248 16.447,18.746 21.948,24.248z"></path><title>Remove link.</title></g><g  event="link:options"><circle r="11" transform="translate(25)"></circle><path fill="white" transform="scale(.55) translate(29, -16)" d="M31.229,17.736c0.064-0.571,0.104-1.148,0.104-1.736s-0.04-1.166-0.104-1.737l-4.377-1.557c-0.218-0.716-0.504-1.401-0.851-2.05l1.993-4.192c-0.725-0.91-1.549-1.734-2.458-2.459l-4.193,1.994c-0.647-0.347-1.334-0.632-2.049-0.849l-1.558-4.378C17.165,0.708,16.588,0.667,16,0.667s-1.166,0.041-1.737,0.105L12.707,5.15c-0.716,0.217-1.401,0.502-2.05,0.849L6.464,4.005C5.554,4.73,4.73,5.554,4.005,6.464l1.994,4.192c-0.347,0.648-0.632,1.334-0.849,2.05l-4.378,1.557C0.708,14.834,0.667,15.412,0.667,16s0.041,1.165,0.105,1.736l4.378,1.558c0.217,0.715,0.502,1.401,0.849,2.049l-1.994,4.193c0.725,0.909,1.549,1.733,2.459,2.458l4.192-1.993c0.648,0.347,1.334,0.633,2.05,0.851l1.557,4.377c0.571,0.064,1.148,0.104,1.737,0.104c0.588,0,1.165-0.04,1.736-0.104l1.558-4.377c0.715-0.218,1.399-0.504,2.049-0.851l4.193,1.993c0.909-0.725,1.733-1.549,2.458-2.458l-1.993-4.193c0.347-0.647,0.633-1.334,0.851-2.049L31.229,17.736zM16,20.871c-2.69,0-4.872-2.182-4.872-4.871c0-2.69,2.182-4.872,4.872-4.872c2.689,0,4.871,2.182,4.871,4.872C20.871,18.689,18.689,20.871,16,20.871z"></path><title>Link options.</title></g></g></g></g><!--z-index:39--><g   id="j_124" ><path  stroke="#707070" d="M 1195 1671 L 1195 1971" id="v-1394" stroke-width="2" fill="none" style="opacity: 1;"></path><path  fill="black" stroke="black" d="M 0 0 0 0" transform="matrix(6.123233995736766e-17,1,-1,6.123233995736766e-17,1195,1671)"></path><path  fill="#707070" stroke="#707070" d="M 20 0 L 0 10 L 20 20 z" id="v-1396" transform="matrix(-1.8369701987210297e-16,-1,1,-1.8369701987210297e-16,1185,1971)" style="opacity: 1;"></path><path  d="M 1195 1671 L 1195 1971" id="v-1395" fill="none" style="cursor: auto; pointer-events: visiblepainted;"></path><g ><g id="v-1388"  label-idx="0" cursor="move" transform="matrix(1,0,0,1,1195,1821)" style="cursor: default; opacity: 1;"><rect joint-selector="rect" id="v-1391" fill="#111111" rx="3" ry="3" pointer-events="none" width="0" height="0" transform="matrix(1,0,0,1,0,0)"></rect><text joint-selector="text" id="v-1390" font-size="24px" xml:space="preserve" display="none" y="0.8em" fill="#707070" text-anchor="middle" pointer-events="none" font-family="Open Sans" font-weight="normal"><tspan dy="0" style="fill-opacity: 0; stroke-opacity: 0;" >-</tspan></text></g><g id="v-1389"  label-idx="1" cursor="move" transform="matrix(1,0,0,1,1185,1833)" style="cursor: default; opacity: 1;"><rect joint-selector="rect" id="v-1393" fill="#ffffff" rx="3" ry="3"  width="0" height="0" transform="matrix(1,0,0,1,0,0)" display="none"></rect><text joint-selector="text" id="v-1392" fill="#000000" font-size="14" text-anchor="middle" pointer-events="none"></text></g></g><g  display="none" style="display: none;"></g><g  id="v-1398" display="none"><g  id="v-1386"><path  end="source" d="M 26 0 L 0 13 L 26 26 z"></path></g><g  id="v-1387"><path  end="target" d="M 26 0 L 0 13 L 26 26 z"></path></g></g><g  id="v-1397" display="none"><g  id="v-1385" transform="translate(1195, 1711) "><g  event="remove"><circle r="11"></circle><path transform="scale(.8) translate(-16, -16)" d="M24.778,21.419 19.276,15.917 24.777,10.415 21.949,7.585 16.447,13.087 10.945,7.585 8.117,10.415 13.618,15.917 8.116,21.419 10.946,24.248 16.447,18.746 21.948,24.248z"></path><title>Remove link.</title></g><g  event="link:options"><circle r="11" transform="translate(25)"></circle><path fill="white" transform="scale(.55) translate(29, -16)" d="M31.229,17.736c0.064-0.571,0.104-1.148,0.104-1.736s-0.04-1.166-0.104-1.737l-4.377-1.557c-0.218-0.716-0.504-1.401-0.851-2.05l1.993-4.192c-0.725-0.91-1.549-1.734-2.458-2.459l-4.193,1.994c-0.647-0.347-1.334-0.632-2.049-0.849l-1.558-4.378C17.165,0.708,16.588,0.667,16,0.667s-1.166,0.041-1.737,0.105L12.707,5.15c-0.716,0.217-1.401,0.502-2.05,0.849L6.464,4.005C5.554,4.73,4.73,5.554,4.005,6.464l1.994,4.192c-0.347,0.648-0.632,1.334-0.849,2.05l-4.378,1.557C0.708,14.834,0.667,15.412,0.667,16s0.041,1.165,0.105,1.736l4.378,1.558c0.217,0.715,0.502,1.401,0.849,2.049l-1.994,4.193c0.725,0.909,1.549,1.733,2.459,2.458l4.192-1.993c0.648,0.347,1.334,0.633,2.05,0.851l1.557,4.377c0.571,0.064,1.148,0.104,1.737,0.104c0.588,0,1.165-0.04,1.736-0.104l1.558-4.377c0.715-0.218,1.399-0.504,2.049-0.851l4.193,1.993c0.909-0.725,1.733-1.549,2.458-2.458l-1.993-4.193c0.347-0.647,0.633-1.334,0.851-2.049L31.229,17.736zM16,20.871c-2.69,0-4.872-2.182-4.872-4.871c0-2.69,2.182-4.872,4.872-4.872c2.689,0,4.871,2.182,4.871,4.872C20.871,18.689,18.689,20.871,16,20.871z"></path><title>Link options.</title></g></g></g></g><!--z-index:40--><g   id="j_125" ><path  stroke="#707070" d="M 1195 2271 L 1195 2571" id="v-1408" stroke-width="2" fill="none" style="opacity: 1;"></path><path  fill="black" stroke="black" d="M 0 0 0 0" transform="matrix(6.123233995736766e-17,1,-1,6.123233995736766e-17,1195,2271)"></path><path  fill="#707070" stroke="#707070" d="M 20 0 L 0 10 L 20 20 z" id="v-1410" transform="matrix(-1.8369701987210297e-16,-1,1,-1.8369701987210297e-16,1185,2571)" style="opacity: 1;"></path><path  d="M 1195 2271 L 1195 2571" id="v-1409" fill="none" style="cursor: auto; pointer-events: visiblepainted;"></path><g ><g id="v-1402"  label-idx="0" cursor="move" transform="matrix(1,0,0,1,1195,2421)" style="cursor: default; opacity: 1;"><rect joint-selector="rect" id="v-1405" fill="#111111" rx="3" ry="3" pointer-events="none" width="0" height="0" transform="matrix(1,0,0,1,0,0)"></rect><text joint-selector="text" id="v-1404" font-size="24px" xml:space="preserve" display="none" y="0.8em" fill="#707070" text-anchor="middle" pointer-events="none" font-family="Open Sans" font-weight="normal"><tspan dy="0" style="fill-opacity: 0; stroke-opacity: 0;" >-</tspan></text></g><g id="v-1403"  label-idx="1" cursor="move" transform="matrix(1,0,0,1,1185,2433)" style="cursor: default; opacity: 1;"><rect joint-selector="rect" id="v-1407" fill="#ffffff" rx="3" ry="3"  width="0" height="0" transform="matrix(1,0,0,1,0,0)" display="none"></rect><text joint-selector="text" id="v-1406" fill="#000000" font-size="14" text-anchor="middle" pointer-events="none"></text></g></g><g  display="none" style="display: none;"></g><g  id="v-1412" display="none"><g  id="v-1400"><path  end="source" d="M 26 0 L 0 13 L 26 26 z"></path></g><g  id="v-1401"><path  end="target" d="M 26 0 L 0 13 L 26 26 z"></path></g></g><g  id="v-1411" display="none"><g  id="v-1399" transform="translate(1195, 2311) "><g  event="remove"><circle r="11"></circle><path transform="scale(.8) translate(-16, -16)" d="M24.778,21.419 19.276,15.917 24.777,10.415 21.949,7.585 16.447,13.087 10.945,7.585 8.117,10.415 13.618,15.917 8.116,21.419 10.946,24.248 16.447,18.746 21.948,24.248z"></path><title>Remove link.</title></g><g  event="link:options"><circle r="11" transform="translate(25)"></circle><path fill="white" transform="scale(.55) translate(29, -16)" d="M31.229,17.736c0.064-0.571,0.104-1.148,0.104-1.736s-0.04-1.166-0.104-1.737l-4.377-1.557c-0.218-0.716-0.504-1.401-0.851-2.05l1.993-4.192c-0.725-0.91-1.549-1.734-2.458-2.459l-4.193,1.994c-0.647-0.347-1.334-0.632-2.049-0.849l-1.558-4.378C17.165,0.708,16.588,0.667,16,0.667s-1.166,0.041-1.737,0.105L12.707,5.15c-0.716,0.217-1.401,0.502-2.05,0.849L6.464,4.005C5.554,4.73,4.73,5.554,4.005,6.464l1.994,4.192c-0.347,0.648-0.632,1.334-0.849,2.05l-4.378,1.557C0.708,14.834,0.667,15.412,0.667,16s0.041,1.165,0.105,1.736l4.378,1.558c0.217,0.715,0.502,1.401,0.849,2.049l-1.994,4.193c0.725,0.909,1.549,1.733,2.459,2.458l4.192-1.993c0.648,0.347,1.334,0.633,2.05,0.851l1.557,4.377c0.571,0.064,1.148,0.104,1.737,0.104c0.588,0,1.165-0.04,1.736-0.104l1.558-4.377c0.715-0.218,1.399-0.504,2.049-0.851l4.193,1.993c0.909-0.725,1.733-1.549,2.458-2.458l-1.993-4.193c0.347-0.647,0.633-1.334,0.851-2.049L31.229,17.736zM16,20.871c-2.69,0-4.872-2.182-4.872-4.871c0-2.69,2.182-4.872,4.872-4.872c2.689,0,4.871,2.182,4.871,4.872C20.871,18.689,18.689,20.871,16,20.871z"></path><title>Link options.</title></g></g></g></g><!--z-index:41--><g   id="j_126" ><path  stroke="#707070" d="M 445 471 L 445 771" id="v-1422" stroke-width="2" fill="none" style="opacity: 1;"></path><path  fill="black" stroke="black" d="M 0 0 0 0" transform="matrix(6.123233995736766e-17,1,-1,6.123233995736766e-17,445,471)"></path><path  fill="#707070" stroke="#707070" d="M 20 0 L 0 10 L 20 20 z" id="v-1424" transform="matrix(-1.8369701987210297e-16,-1,1,-1.8369701987210297e-16,435,771)" style="opacity: 1;"></path><path  d="M 445 471 L 445 771" id="v-1423" fill="none" style="cursor: auto; pointer-events: visiblepainted;"></path><g ><g id="v-1416"  label-idx="0" cursor="move" transform="matrix(1,0,0,1,445,621)" style="cursor: default; opacity: 1;"><rect joint-selector="rect" id="v-1419" fill="#111111" rx="3" ry="3" pointer-events="none" width="0" height="0" transform="matrix(1,0,0,1,0,0)"></rect><text joint-selector="text" id="v-1418" font-size="24px" xml:space="preserve" display="none" y="0.8em" fill="#707070" text-anchor="middle" pointer-events="none" font-family="Open Sans" font-weight="normal"><tspan dy="0" style="fill-opacity: 0; stroke-opacity: 0;" >-</tspan></text></g><g id="v-1417"  label-idx="1" cursor="move" transform="matrix(1,0,0,1,435,633)" style="cursor: default; opacity: 1;"><rect joint-selector="rect" id="v-1421" fill="#ffffff" rx="3" ry="3"  width="0" height="0" transform="matrix(1,0,0,1,0,0)" display="none"></rect><text joint-selector="text" id="v-1420" fill="#000000" font-size="14" text-anchor="middle" pointer-events="none"></text></g></g><g  display="none" style="display: none;"></g><g  id="v-1426" display="none"><g  id="v-1414"><path  end="source" d="M 26 0 L 0 13 L 26 26 z"></path></g><g  id="v-1415"><path  end="target" d="M 26 0 L 0 13 L 26 26 z"></path></g></g><g  id="v-1425" display="none"><g  id="v-1413" transform="translate(445, 511) "><g  event="remove"><circle r="11"></circle><path transform="scale(.8) translate(-16, -16)" d="M24.778,21.419 19.276,15.917 24.777,10.415 21.949,7.585 16.447,13.087 10.945,7.585 8.117,10.415 13.618,15.917 8.116,21.419 10.946,24.248 16.447,18.746 21.948,24.248z"></path><title>Remove link.</title></g><g  event="link:options"><circle r="11" transform="translate(25)"></circle><path fill="white" transform="scale(.55) translate(29, -16)" d="M31.229,17.736c0.064-0.571,0.104-1.148,0.104-1.736s-0.04-1.166-0.104-1.737l-4.377-1.557c-0.218-0.716-0.504-1.401-0.851-2.05l1.993-4.192c-0.725-0.91-1.549-1.734-2.458-2.459l-4.193,1.994c-0.647-0.347-1.334-0.632-2.049-0.849l-1.558-4.378C17.165,0.708,16.588,0.667,16,0.667s-1.166,0.041-1.737,0.105L12.707,5.15c-0.716,0.217-1.401,0.502-2.05,0.849L6.464,4.005C5.554,4.73,4.73,5.554,4.005,6.464l1.994,4.192c-0.347,0.648-0.632,1.334-0.849,2.05l-4.378,1.557C0.708,14.834,0.667,15.412,0.667,16s0.041,1.165,0.105,1.736l4.378,1.558c0.217,0.715,0.502,1.401,0.849,2.049l-1.994,4.193c0.725,0.909,1.549,1.733,2.459,2.458l4.192-1.993c0.648,0.347,1.334,0.633,2.05,0.851l1.557,4.377c0.571,0.064,1.148,0.104,1.737,0.104c0.588,0,1.165-0.04,1.736-0.104l1.558-4.377c0.715-0.218,1.399-0.504,2.049-0.851l4.193,1.993c0.909-0.725,1.733-1.549,2.458-2.458l-1.993-4.193c0.347-0.647,0.633-1.334,0.851-2.049L31.229,17.736zM16,20.871c-2.69,0-4.872-2.182-4.872-4.871c0-2.69,2.182-4.872,4.872-4.872c2.689,0,4.871,2.182,4.871,4.872C20.871,18.689,18.689,20.871,16,20.871z"></path><title>Link options.</title></g></g></g></g><!--z-index:42--><g   id="j_127" ><path  stroke="#707070" d="M 445 1071 L 445 1371" id="v-1436" stroke-width="2" fill="none" style="opacity: 1;"></path><path  fill="black" stroke="black" d="M 0 0 0 0" transform="matrix(6.123233995736766e-17,1,-1,6.123233995736766e-17,445,1071)"></path><path  fill="#707070" stroke="#707070" d="M 20 0 L 0 10 L 20 20 z" id="v-1438" transform="matrix(-1.8369701987210297e-16,-1,1,-1.8369701987210297e-16,435,1371)" style="opacity: 1;"></path><path  d="M 445 1071 L 445 1371" id="v-1437" fill="none" style="cursor: auto; pointer-events: visiblepainted;"></path><g ><g id="v-1430"  label-idx="0" cursor="move" transform="matrix(1,0,0,1,445,1221)" style="cursor: default; opacity: 1;"><rect joint-selector="rect" id="v-1433" fill="#111111" rx="3" ry="3" pointer-events="none" width="0" height="0" transform="matrix(1,0,0,1,0,0)"></rect><text joint-selector="text" id="v-1432" font-size="24px" xml:space="preserve" display="none" y="0.8em" fill="#707070" text-anchor="middle" pointer-events="none" font-family="Open Sans" font-weight="normal"><tspan dy="0" style="fill-opacity: 0; stroke-opacity: 0;" >-</tspan></text></g><g id="v-1431"  label-idx="1" cursor="move" transform="matrix(1,0,0,1,435,1233)" style="cursor: default; opacity: 1;"><rect joint-selector="rect" id="v-1435" fill="#ffffff" rx="3" ry="3"  width="0" height="0" transform="matrix(1,0,0,1,0,0)" display="none"></rect><text joint-selector="text" id="v-1434" fill="#000000" font-size="14" text-anchor="middle" pointer-events="none"></text></g></g><g  display="none" style="display: none;"></g><g  id="v-1440" display="none"><g  id="v-1428"><path  end="source" d="M 26 0 L 0 13 L 26 26 z"></path></g><g  id="v-1429"><path  end="target" d="M 26 0 L 0 13 L 26 26 z"></path></g></g><g  id="v-1439" display="none"><g  id="v-1427" transform="translate(445, 1111) "><g  event="remove"><circle r="11"></circle><path transform="scale(.8) translate(-16, -16)" d="M24.778,21.419 19.276,15.917 24.777,10.415 21.949,7.585 16.447,13.087 10.945,7.585 8.117,10.415 13.618,15.917 8.116,21.419 10.946,24.248 16.447,18.746 21.948,24.248z"></path><title>Remove link.</title></g><g  event="link:options"><circle r="11" transform="translate(25)"></circle><path fill="white" transform="scale(.55) translate(29, -16)" d="M31.229,17.736c0.064-0.571,0.104-1.148,0.104-1.736s-0.04-1.166-0.104-1.737l-4.377-1.557c-0.218-0.716-0.504-1.401-0.851-2.05l1.993-4.192c-0.725-0.91-1.549-1.734-2.458-2.459l-4.193,1.994c-0.647-0.347-1.334-0.632-2.049-0.849l-1.558-4.378C17.165,0.708,16.588,0.667,16,0.667s-1.166,0.041-1.737,0.105L12.707,5.15c-0.716,0.217-1.401,0.502-2.05,0.849L6.464,4.005C5.554,4.73,4.73,5.554,4.005,6.464l1.994,4.192c-0.347,0.648-0.632,1.334-0.849,2.05l-4.378,1.557C0.708,14.834,0.667,15.412,0.667,16s0.041,1.165,0.105,1.736l4.378,1.558c0.217,0.715,0.502,1.401,0.849,2.049l-1.994,4.193c0.725,0.909,1.549,1.733,2.459,2.458l4.192-1.993c0.648,0.347,1.334,0.633,2.05,0.851l1.557,4.377c0.571,0.064,1.148,0.104,1.737,0.104c0.588,0,1.165-0.04,1.736-0.104l1.558-4.377c0.715-0.218,1.399-0.504,2.049-0.851l4.193,1.993c0.909-0.725,1.733-1.549,2.458-2.458l-1.993-4.193c0.347-0.647,0.633-1.334,0.851-2.049L31.229,17.736zM16,20.871c-2.69,0-4.872-2.182-4.872-4.871c0-2.69,2.182-4.872,4.872-4.872c2.689,0,4.871,2.182,4.871,4.872C20.871,18.689,18.689,20.871,16,20.871z"></path><title>Link options.</title></g></g></g></g><!--z-index:43--><g   id="j_128" ><path  stroke="#707070" d="M 445 1671 L 445 1971" id="v-1450" stroke-width="2" fill="none" style="opacity: 1;"></path><path  fill="black" stroke="black" d="M 0 0 0 0" transform="matrix(6.123233995736766e-17,1,-1,6.123233995736766e-17,445,1671)"></path><path  fill="#707070" stroke="#707070" d="M 20 0 L 0 10 L 20 20 z" id="v-1452" transform="matrix(-1.8369701987210297e-16,-1,1,-1.8369701987210297e-16,435,1971)" style="opacity: 1;"></path><path  d="M 445 1671 L 445 1971" id="v-1451" fill="none" style="cursor: auto; pointer-events: visiblepainted;"></path><g ><g id="v-1444"  label-idx="0" cursor="move" transform="matrix(1,0,0,1,445,1821)" style="cursor: default; opacity: 1;"><rect joint-selector="rect" id="v-1447" fill="#111111" rx="3" ry="3" pointer-events="none" width="0" height="0" transform="matrix(1,0,0,1,0,0)"></rect><text joint-selector="text" id="v-1446" font-size="24px" xml:space="preserve" display="none" y="0.8em" fill="#707070" text-anchor="middle" pointer-events="none" font-family="Open Sans" font-weight="normal"><tspan dy="0" style="fill-opacity: 0; stroke-opacity: 0;" >-</tspan></text></g><g id="v-1445"  label-idx="1" cursor="move" transform="matrix(1,0,0,1,435,1833)" style="cursor: default; opacity: 1;"><rect joint-selector="rect" id="v-1449" fill="#ffffff" rx="3" ry="3"  width="0" height="0" transform="matrix(1,0,0,1,0,0)" display="none"></rect><text joint-selector="text" id="v-1448" fill="#000000" font-size="14" text-anchor="middle" pointer-events="none"></text></g></g><g  display="none" style="display: none;"></g><g  id="v-1454" display="none"><g  id="v-1442"><path  end="source" d="M 26 0 L 0 13 L 26 26 z"></path></g><g  id="v-1443"><path  end="target" d="M 26 0 L 0 13 L 26 26 z"></path></g></g><g  id="v-1453" display="none"><g  id="v-1441" transform="translate(445, 1711) "><g  event="remove"><circle r="11"></circle><path transform="scale(.8) translate(-16, -16)" d="M24.778,21.419 19.276,15.917 24.777,10.415 21.949,7.585 16.447,13.087 10.945,7.585 8.117,10.415 13.618,15.917 8.116,21.419 10.946,24.248 16.447,18.746 21.948,24.248z"></path><title>Remove link.</title></g><g  event="link:options"><circle r="11" transform="translate(25)"></circle><path fill="white" transform="scale(.55) translate(29, -16)" d="M31.229,17.736c0.064-0.571,0.104-1.148,0.104-1.736s-0.04-1.166-0.104-1.737l-4.377-1.557c-0.218-0.716-0.504-1.401-0.851-2.05l1.993-4.192c-0.725-0.91-1.549-1.734-2.458-2.459l-4.193,1.994c-0.647-0.347-1.334-0.632-2.049-0.849l-1.558-4.378C17.165,0.708,16.588,0.667,16,0.667s-1.166,0.041-1.737,0.105L12.707,5.15c-0.716,0.217-1.401,0.502-2.05,0.849L6.464,4.005C5.554,4.73,4.73,5.554,4.005,6.464l1.994,4.192c-0.347,0.648-0.632,1.334-0.849,2.05l-4.378,1.557C0.708,14.834,0.667,15.412,0.667,16s0.041,1.165,0.105,1.736l4.378,1.558c0.217,0.715,0.502,1.401,0.849,2.049l-1.994,4.193c0.725,0.909,1.549,1.733,2.459,2.458l4.192-1.993c0.648,0.347,1.334,0.633,2.05,0.851l1.557,4.377c0.571,0.064,1.148,0.104,1.737,0.104c0.588,0,1.165-0.04,1.736-0.104l1.558-4.377c0.715-0.218,1.399-0.504,2.049-0.851l4.193,1.993c0.909-0.725,1.733-1.549,2.458-2.458l-1.993-4.193c0.347-0.647,0.633-1.334,0.851-2.049L31.229,17.736zM16,20.871c-2.69,0-4.872-2.182-4.872-4.871c0-2.69,2.182-4.872,4.872-4.872c2.689,0,4.871,2.182,4.871,4.872C20.871,18.689,18.689,20.871,16,20.871z"></path><title>Link options.</title></g></g></g></g><!--z-index:44--><g   id="j_129" ><path  stroke="#707070" d="M 445 2271 L 445 2571" id="v-1464" stroke-width="2" fill="none" style="opacity: 1;"></path><path  fill="black" stroke="black" d="M 0 0 0 0" transform="matrix(6.123233995736766e-17,1,-1,6.123233995736766e-17,445,2271)"></path><path  fill="#707070" stroke="#707070" d="M 20 0 L 0 10 L 20 20 z" id="v-1466" transform="matrix(-1.8369701987210297e-16,-1,1,-1.8369701987210297e-16,435,2571)" style="opacity: 1;"></path><path  d="M 445 2271 L 445 2571" id="v-1465" fill="none" style="cursor: auto; pointer-events: visiblepainted;"></path><g ><g id="v-1458"  label-idx="0" cursor="move" transform="matrix(1,0,0,1,445,2421)" style="cursor: default; opacity: 1;"><rect joint-selector="rect" id="v-1461" fill="#111111" rx="3" ry="3" pointer-events="none" width="0" height="0" transform="matrix(1,0,0,1,0,0)"></rect><text joint-selector="text" id="v-1460" font-size="24px" xml:space="preserve" display="none" y="0.8em" fill="#707070" text-anchor="middle" pointer-events="none" font-family="Open Sans" font-weight="normal"><tspan dy="0" style="fill-opacity: 0; stroke-opacity: 0;" >-</tspan></text></g><g id="v-1459"  label-idx="1" cursor="move" transform="matrix(1,0,0,1,435,2433)" style="cursor: default; opacity: 1;"><rect joint-selector="rect" id="v-1463" fill="#ffffff" rx="3" ry="3"  width="0" height="0" transform="matrix(1,0,0,1,0,0)" display="none"></rect><text joint-selector="text" id="v-1462" fill="#000000" font-size="14" text-anchor="middle" pointer-events="none"></text></g></g><g  display="none" style="display: none;"></g><g  id="v-1468" display="none"><g  id="v-1456"><path  end="source" d="M 26 0 L 0 13 L 26 26 z"></path></g><g  id="v-1457"><path  end="target" d="M 26 0 L 0 13 L 26 26 z"></path></g></g><g  id="v-1467" display="none"><g  id="v-1455" transform="translate(445, 2311) "><g  event="remove"><circle r="11"></circle><path transform="scale(.8) translate(-16, -16)" d="M24.778,21.419 19.276,15.917 24.777,10.415 21.949,7.585 16.447,13.087 10.945,7.585 8.117,10.415 13.618,15.917 8.116,21.419 10.946,24.248 16.447,18.746 21.948,24.248z"></path><title>Remove link.</title></g><g  event="link:options"><circle r="11" transform="translate(25)"></circle><path fill="white" transform="scale(.55) translate(29, -16)" d="M31.229,17.736c0.064-0.571,0.104-1.148,0.104-1.736s-0.04-1.166-0.104-1.737l-4.377-1.557c-0.218-0.716-0.504-1.401-0.851-2.05l1.993-4.192c-0.725-0.91-1.549-1.734-2.458-2.459l-4.193,1.994c-0.647-0.347-1.334-0.632-2.049-0.849l-1.558-4.378C17.165,0.708,16.588,0.667,16,0.667s-1.166,0.041-1.737,0.105L12.707,5.15c-0.716,0.217-1.401,0.502-2.05,0.849L6.464,4.005C5.554,4.73,4.73,5.554,4.005,6.464l1.994,4.192c-0.347,0.648-0.632,1.334-0.849,2.05l-4.378,1.557C0.708,14.834,0.667,15.412,0.667,16s0.041,1.165,0.105,1.736l4.378,1.558c0.217,0.715,0.502,1.401,0.849,2.049l-1.994,4.193c0.725,0.909,1.549,1.733,2.459,2.458l4.192-1.993c0.648,0.347,1.334,0.633,2.05,0.851l1.557,4.377c0.571,0.064,1.148,0.104,1.737,0.104c0.588,0,1.165-0.04,1.736-0.104l1.558-4.377c0.715-0.218,1.399-0.504,2.049-0.851l4.193,1.993c0.909-0.725,1.733-1.549,2.458-2.458l-1.993-4.193c0.347-0.647,0.633-1.334,0.851-2.049L31.229,17.736zM16,20.871c-2.69,0-4.872-2.182-4.872-4.871c0-2.69,2.182-4.872,4.872-4.872c2.689,0,4.871,2.182,4.871,4.872C20.871,18.689,18.689,20.871,16,20.871z"></path><title>Link options.</title></g></g></g></g><!--z-index:45--><!--z-index:46--><!--z-index:47--><!--z-index:48--><!--z-index:49--><!--z-index:50--><!--z-index:51--><!--z-index:52--><!--z-index:53--><!--z-index:54--><!--z-index:55--><!--z-index:56--><!--z-index:57--><!--z-index:58--><!--z-index:59--></g><g ></g><g ></g><g ></g></g></svg>