<?xml version="1.0" encoding="UTF-8" standalone="no"?>
<!DOCTYPE svg PUBLIC "-//W3C//DTD SVG 1.1//EN"
 "http://www.w3.org/Graphics/SVG/1.1/DTD/svg11.dtd">
<!-- Generated by graphviz version 14.0.1 (20251006.0113)
 -->
<!-- Title: G Pages: 1 -->
<svg width="537pt" height="219pt"
 viewBox="0.00 0.00 537.00 219.00" xmlns="http://www.w3.org/2000/svg" xmlns:xlink="http://www.w3.org/1999/xlink">
<g id="graph0" class="graph" transform="scale(1 1) rotate(0) translate(4 214.5)">
<title>G</title>
<polygon fill="white" stroke="none" points="-4,4 -4,-214.5 533,-214.5 533,4 -4,4"/>
<!-- title -->
<g id="node1" class="node">
<title>title</title>
<text xml:space="preserve" text-anchor="middle" x="264.5" y="-184.78" font-family="Arial-Bold" font-size="18.00">Scorecard: CityPulse Architecture</text>
</g>
<!-- matrix -->
<g id="node2" class="node">
<title>matrix</title>
<polygon fill="#f5f5f5" stroke="none" points="8,-112.75 8,-134.5 175.25,-134.5 175.25,-112.75 8,-112.75"/>
<polygon fill="none" stroke="black" points="8,-112.75 8,-134.5 175.25,-134.5 175.25,-112.75 8,-112.75"/>
<text xml:space="preserve" text-anchor="start" x="17.38" y="-119.2" font-family="Arial" font-weight="bold" font-size="14.00">Quality Attribute Driver</text>
<polygon fill="#ddebf7" stroke="none" points="175.25,-112.75 175.25,-134.5 270.5,-134.5 270.5,-112.75 175.25,-112.75"/>
<polygon fill="none" stroke="black" points="175.25,-112.75 175.25,-134.5 270.5,-134.5 270.5,-112.75 175.25,-112.75"/>
<text xml:space="preserve" text-anchor="start" x="178.25" y="-119.2" font-family="Arial" font-weight="bold" font-size="14.00">Monolith (1&#45;5)</text>
<polygon fill="#e2f0d9" stroke="none" points="270.5,-112.75 270.5,-134.5 399.5,-134.5 399.5,-112.75 270.5,-112.75"/>
<polygon fill="none" stroke="black" points="270.5,-112.75 270.5,-134.5 399.5,-134.5 399.5,-112.75 270.5,-112.75"/>
<text xml:space="preserve" text-anchor="start" x="273.5" y="-119.2" font-family="Arial" font-weight="bold" font-size="14.00">Microservices (1&#45;5)</text>
<polygon fill="#fff2cc" stroke="none" points="399.5,-112.75 399.5,-134.5 521,-134.5 521,-112.75 399.5,-112.75"/>
<polygon fill="none" stroke="black" points="399.5,-112.75 399.5,-134.5 521,-134.5 521,-112.75 399.5,-112.75"/>
<text xml:space="preserve" text-anchor="start" x="402.5" y="-119.2" font-family="Arial" font-weight="bold" font-size="14.00">Event&#45;Driven (1&#45;5)</text>
<polygon fill="none" stroke="black" points="8,-91 8,-112.75 175.25,-112.75 175.25,-91 8,-91"/>
<text xml:space="preserve" text-anchor="start" x="11" y="-96.45" font-family="Arial" font-size="14.00">Time&#45;to&#45;Market</text>
<polygon fill="none" stroke="black" points="175.25,-91 175.25,-112.75 270.5,-112.75 270.5,-91 175.25,-91"/>
<text xml:space="preserve" text-anchor="start" x="219.12" y="-96.45" font-family="Arial" font-size="14.00">5</text>
<polygon fill="none" stroke="black" points="270.5,-91 270.5,-112.75 399.5,-112.75 399.5,-91 270.5,-91"/>
<text xml:space="preserve" text-anchor="start" x="331.25" y="-96.45" font-family="Arial" font-size="14.00">2</text>
<polygon fill="none" stroke="black" points="399.5,-91 399.5,-112.75 521,-112.75 521,-91 399.5,-91"/>
<text xml:space="preserve" text-anchor="start" x="456.5" y="-96.45" font-family="Arial" font-size="14.00">3</text>
<polygon fill="none" stroke="black" points="8,-69.25 8,-91 175.25,-91 175.25,-69.25 8,-69.25"/>
<text xml:space="preserve" text-anchor="start" x="11" y="-74.7" font-family="Arial" font-size="14.00">Throughput Scalability</text>
<polygon fill="none" stroke="black" points="175.25,-69.25 175.25,-91 270.5,-91 270.5,-69.25 175.25,-69.25"/>
<text xml:space="preserve" text-anchor="start" x="219.12" y="-74.7" font-family="Arial" font-size="14.00">2</text>
<polygon fill="none" stroke="black" points="270.5,-69.25 270.5,-91 399.5,-91 399.5,-69.25 270.5,-69.25"/>
<text xml:space="preserve" text-anchor="start" x="331.25" y="-74.7" font-family="Arial" font-size="14.00">5</text>
<polygon fill="none" stroke="black" points="399.5,-69.25 399.5,-91 521,-91 521,-69.25 399.5,-69.25"/>
<text xml:space="preserve" text-anchor="start" x="456.5" y="-74.7" font-family="Arial" font-size="14.00">5</text>
<polygon fill="none" stroke="black" points="8,-47.5 8,-69.25 175.25,-69.25 175.25,-47.5 8,-47.5"/>
<text xml:space="preserve" text-anchor="start" x="11" y="-52.95" font-family="Arial" font-size="14.00">Reliability (Transactional)</text>
<polygon fill="none" stroke="black" points="175.25,-47.5 175.25,-69.25 270.5,-69.25 270.5,-47.5 175.25,-47.5"/>
<text xml:space="preserve" text-anchor="start" x="219.12" y="-52.95" font-family="Arial" font-size="14.00">4</text>
<polygon fill="none" stroke="black" points="270.5,-47.5 270.5,-69.25 399.5,-69.25 399.5,-47.5 270.5,-47.5"/>
<text xml:space="preserve" text-anchor="start" x="331.25" y="-52.95" font-family="Arial" font-size="14.00">3</text>
<polygon fill="none" stroke="black" points="399.5,-47.5 399.5,-69.25 521,-69.25 521,-47.5 399.5,-47.5"/>
<text xml:space="preserve" text-anchor="start" x="456.5" y="-52.95" font-family="Arial" font-size="14.00">4</text>
<polygon fill="none" stroke="black" points="8,-25.75 8,-47.5 175.25,-47.5 175.25,-25.75 8,-25.75"/>
<text xml:space="preserve" text-anchor="start" x="11" y="-31.2" font-family="Arial" font-size="14.00">Initial Cost</text>
<polygon fill="none" stroke="black" points="175.25,-25.75 175.25,-47.5 270.5,-47.5 270.5,-25.75 175.25,-25.75"/>
<text xml:space="preserve" text-anchor="start" x="219.12" y="-31.2" font-family="Arial" font-size="14.00">5</text>
<polygon fill="none" stroke="black" points="270.5,-25.75 270.5,-47.5 399.5,-47.5 399.5,-25.75 270.5,-25.75"/>
<text xml:space="preserve" text-anchor="start" x="331.25" y="-31.2" font-family="Arial" font-size="14.00">2</text>
<polygon fill="none" stroke="black" points="399.5,-25.75 399.5,-47.5 521,-47.5 521,-25.75 399.5,-25.75"/>
<text xml:space="preserve" text-anchor="start" x="456.5" y="-31.2" font-family="Arial" font-size="14.00">3</text>
<polygon fill="none" stroke="black" points="8,-4 8,-25.75 175.25,-25.75 175.25,-4 8,-4"/>
<text xml:space="preserve" text-anchor="start" x="11" y="-9.45" font-family="Arial" font-size="14.00">Performance (Under Load)</text>
<polygon fill="none" stroke="black" points="175.25,-4 175.25,-25.75 270.5,-25.75 270.5,-4 175.25,-4"/>
<text xml:space="preserve" text-anchor="start" x="219.12" y="-9.45" font-family="Arial" font-size="14.00">2</text>
<polygon fill="none" stroke="black" points="270.5,-4 270.5,-25.75 399.5,-25.75 399.5,-4 270.5,-4"/>
<text xml:space="preserve" text-anchor="start" x="331.25" y="-9.45" font-family="Arial" font-size="14.00">4</text>
<polygon fill="none" stroke="black" points="399.5,-4 399.5,-25.75 521,-25.75 521,-4 399.5,-4"/>
<text xml:space="preserve" text-anchor="start" x="456.5" y="-9.45" font-family="Arial" font-size="14.00">5</text>
</g>
<!-- title&#45;&gt;matrix -->
</g>
</svg>
