<?xml version="1.0" encoding="UTF-8" standalone="no"?>
<!DOCTYPE svg PUBLIC "-//W3C//DTD SVG 1.1//EN"
 "http://www.w3.org/Graphics/SVG/1.1/DTD/svg11.dtd">
<!-- Generated by graphviz version 14.0.0 (20250921.2048)
 -->
<!-- Title: G Pages: 1 -->
<svg width="555pt" height="262pt"
 viewBox="0.00 0.00 555.00 262.00" xmlns="http://www.w3.org/2000/svg" xmlns:xlink="http://www.w3.org/1999/xlink">
<g id="graph0" class="graph" transform="scale(1 1) rotate(0) translate(4 258)">
<title>G</title>
<polygon fill="white" stroke="none" points="-4,4 -4,-258 551,-258 551,4 -4,4"/>
<!-- title -->
<g id="node1" class="node">
<title>title</title>
<text xml:space="preserve" text-anchor="middle" x="273.5" y="-228.28" font-family="Arial-Bold" font-size="18.00">Weighted Scoring Matrix: CityPulse Architecture</text>
</g>
<!-- matrix -->
<g id="node2" class="node">
<title>matrix</title>
<polygon fill="#f5f5f5" stroke="none" points="8,-156.25 8,-178 175.25,-178 175.25,-156.25 8,-156.25"/>
<polygon fill="none" stroke="black" points="8,-156.25 8,-178 175.25,-178 175.25,-156.25 8,-156.25"/>
<text xml:space="preserve" text-anchor="start" x="38.75" y="-162.7" font-family="Arial" font-weight="bold" font-size="14.00">Quality Attribute</text>
<polygon fill="#f5f5f5" stroke="none" points="175.25,-156.25 175.25,-178 226.25,-178 226.25,-156.25 175.25,-156.25"/>
<polygon fill="none" stroke="black" points="175.25,-156.25 175.25,-178 226.25,-178 226.25,-156.25 175.25,-156.25"/>
<text xml:space="preserve" text-anchor="start" x="178.25" y="-162.7" font-family="Arial" font-weight="bold" font-size="14.00">Weight</text>
<polygon fill="#ddebf7" stroke="none" points="226.25,-156.25 226.25,-178 330.5,-178 330.5,-156.25 226.25,-156.25"/>
<polygon fill="none" stroke="black" points="226.25,-156.25 226.25,-178 330.5,-178 330.5,-156.25 226.25,-156.25"/>
<text xml:space="preserve" text-anchor="start" x="249.88" y="-162.7" font-family="Arial" font-weight="bold" font-size="14.00">Monolith</text>
<polygon fill="#e2f0d9" stroke="none" points="330.5,-156.25 330.5,-178 434.75,-178 434.75,-156.25 330.5,-156.25"/>
<polygon fill="none" stroke="black" points="330.5,-156.25 330.5,-178 434.75,-178 434.75,-156.25 330.5,-156.25"/>
<text xml:space="preserve" text-anchor="start" x="337.25" y="-162.7" font-family="Arial" font-weight="bold" font-size="14.00">Microservices</text>
<polygon fill="#fff2cc" stroke="none" points="434.75,-156.25 434.75,-178 539,-178 539,-156.25 434.75,-156.25"/>
<polygon fill="none" stroke="black" points="434.75,-156.25 434.75,-178 539,-178 539,-156.25 434.75,-156.25"/>
<text xml:space="preserve" text-anchor="start" x="445.25" y="-162.7" font-family="Arial" font-weight="bold" font-size="14.00">Event&#45;Driven</text>
<polygon fill="none" stroke="black" points="8,-134.5 8,-156.25 175.25,-156.25 175.25,-134.5 8,-134.5"/>
<polygon fill="none" stroke="black" points="175.25,-134.5 175.25,-156.25 226.25,-156.25 226.25,-134.5 175.25,-134.5"/>
<polygon fill="#ddebf7" stroke="none" points="226.25,-134.5 226.25,-156.25 267.5,-156.25 267.5,-134.5 226.25,-134.5"/>
<polygon fill="none" stroke="black" points="226.25,-134.5 226.25,-156.25 267.5,-156.25 267.5,-134.5 226.25,-134.5"/>
<text xml:space="preserve" text-anchor="start" x="229.25" y="-139.95" font-family="Arial" font-size="14.00">Score</text>
<polygon fill="#ddebf7" stroke="none" points="267.5,-134.5 267.5,-156.25 330.5,-156.25 330.5,-134.5 267.5,-134.5"/>
<polygon fill="none" stroke="black" points="267.5,-134.5 267.5,-156.25 330.5,-156.25 330.5,-134.5 267.5,-134.5"/>
<text xml:space="preserve" text-anchor="start" x="270.5" y="-140.95" font-family="Arial" font-style="italic" font-size="14.00">Weighted</text>
<polygon fill="#e2f0d9" stroke="none" points="330.5,-134.5 330.5,-156.25 371.75,-156.25 371.75,-134.5 330.5,-134.5"/>
<polygon fill="none" stroke="black" points="330.5,-134.5 330.5,-156.25 371.75,-156.25 371.75,-134.5 330.5,-134.5"/>
<text xml:space="preserve" text-anchor="start" x="333.5" y="-139.95" font-family="Arial" font-size="14.00">Score</text>
<polygon fill="#e2f0d9" stroke="none" points="371.75,-134.5 371.75,-156.25 434.75,-156.25 434.75,-134.5 371.75,-134.5"/>
<polygon fill="none" stroke="black" points="371.75,-134.5 371.75,-156.25 434.75,-156.25 434.75,-134.5 371.75,-134.5"/>
<text xml:space="preserve" text-anchor="start" x="374.75" y="-140.95" font-family="Arial" font-style="italic" font-size="14.00">Weighted</text>
<polygon fill="#fff2cc" stroke="none" points="434.75,-134.5 434.75,-156.25 476,-156.25 476,-134.5 434.75,-134.5"/>
<polygon fill="none" stroke="black" points="434.75,-134.5 434.75,-156.25 476,-156.25 476,-134.5 434.75,-134.5"/>
<text xml:space="preserve" text-anchor="start" x="437.75" y="-139.95" font-family="Arial" font-size="14.00">Score</text>
<polygon fill="#fff2cc" stroke="none" points="476,-134.5 476,-156.25 539,-156.25 539,-134.5 476,-134.5"/>
<polygon fill="none" stroke="black" points="476,-134.5 476,-156.25 539,-156.25 539,-134.5 476,-134.5"/>
<text xml:space="preserve" text-anchor="start" x="479" y="-140.95" font-family="Arial" font-style="italic" font-size="14.00">Weighted</text>
<polygon fill="none" stroke="black" points="8,-112.75 8,-134.5 175.25,-134.5 175.25,-112.75 8,-112.75"/>
<text xml:space="preserve" text-anchor="start" x="45.12" y="-118.2" font-family="Arial" font-size="14.00">Time&#45;to&#45;Market</text>
<polygon fill="none" stroke="black" points="175.25,-112.75 175.25,-134.5 226.25,-134.5 226.25,-112.75 175.25,-112.75"/>
<text xml:space="preserve" text-anchor="start" x="186.88" y="-119.2" font-family="Arial" font-weight="bold" font-size="14.00">40%</text>
<polygon fill="none" stroke="black" points="226.25,-112.75 226.25,-134.5 267.5,-134.5 267.5,-112.75 226.25,-112.75"/>
<text xml:space="preserve" text-anchor="start" x="243.12" y="-118.2" font-family="Arial" font-size="14.00">5</text>
<polygon fill="none" stroke="black" points="267.5,-112.75 267.5,-134.5 330.5,-134.5 330.5,-112.75 267.5,-112.75"/>
<text xml:space="preserve" text-anchor="start" x="285.88" y="-118.2" font-family="Arial" font-size="14.00">2.00</text>
<polygon fill="none" stroke="black" points="330.5,-112.75 330.5,-134.5 371.75,-134.5 371.75,-112.75 330.5,-112.75"/>
<text xml:space="preserve" text-anchor="start" x="347.38" y="-118.2" font-family="Arial" font-size="14.00">2</text>
<polygon fill="none" stroke="black" points="371.75,-112.75 371.75,-134.5 434.75,-134.5 434.75,-112.75 371.75,-112.75"/>
<text xml:space="preserve" text-anchor="start" x="390.12" y="-118.2" font-family="Arial" font-size="14.00">0.80</text>
<polygon fill="none" stroke="black" points="434.75,-112.75 434.75,-134.5 476,-134.5 476,-112.75 434.75,-112.75"/>
<text xml:space="preserve" text-anchor="start" x="451.62" y="-118.2" font-family="Arial" font-size="14.00">3</text>
<polygon fill="none" stroke="black" points="476,-112.75 476,-134.5 539,-134.5 539,-112.75 476,-112.75"/>
<text xml:space="preserve" text-anchor="start" x="494.38" y="-118.2" font-family="Arial" font-size="14.00">1.20</text>
<polygon fill="none" stroke="black" points="8,-91 8,-112.75 175.25,-112.75 175.25,-91 8,-91"/>
<text xml:space="preserve" text-anchor="start" x="24.88" y="-96.45" font-family="Arial" font-size="14.00">Throughput Scalability</text>
<polygon fill="none" stroke="black" points="175.25,-91 175.25,-112.75 226.25,-112.75 226.25,-91 175.25,-91"/>
<text xml:space="preserve" text-anchor="start" x="186.88" y="-97.45" font-family="Arial" font-weight="bold" font-size="14.00">30%</text>
<polygon fill="none" stroke="black" points="226.25,-91 226.25,-112.75 267.5,-112.75 267.5,-91 226.25,-91"/>
<text xml:space="preserve" text-anchor="start" x="243.12" y="-96.45" font-family="Arial" font-size="14.00">2</text>
<polygon fill="none" stroke="black" points="267.5,-91 267.5,-112.75 330.5,-112.75 330.5,-91 267.5,-91"/>
<text xml:space="preserve" text-anchor="start" x="285.88" y="-96.45" font-family="Arial" font-size="14.00">0.60</text>
<polygon fill="none" stroke="black" points="330.5,-91 330.5,-112.75 371.75,-112.75 371.75,-91 330.5,-91"/>
<text xml:space="preserve" text-anchor="start" x="347.38" y="-96.45" font-family="Arial" font-size="14.00">5</text>
<polygon fill="none" stroke="black" points="371.75,-91 371.75,-112.75 434.75,-112.75 434.75,-91 371.75,-91"/>
<text xml:space="preserve" text-anchor="start" x="390.12" y="-96.45" font-family="Arial" font-size="14.00">1.50</text>
<polygon fill="none" stroke="black" points="434.75,-91 434.75,-112.75 476,-112.75 476,-91 434.75,-91"/>
<text xml:space="preserve" text-anchor="start" x="451.62" y="-96.45" font-family="Arial" font-size="14.00">5</text>
<polygon fill="none" stroke="black" points="476,-91 476,-112.75 539,-112.75 539,-91 476,-91"/>
<text xml:space="preserve" text-anchor="start" x="494.38" y="-96.45" font-family="Arial" font-size="14.00">1.50</text>
<polygon fill="none" stroke="black" points="8,-69.25 8,-91 175.25,-91 175.25,-69.25 8,-69.25"/>
<text xml:space="preserve" text-anchor="start" x="15.88" y="-74.7" font-family="Arial" font-size="14.00">Reliability (Transactional)</text>
<polygon fill="none" stroke="black" points="175.25,-69.25 175.25,-91 226.25,-91 226.25,-69.25 175.25,-69.25"/>
<text xml:space="preserve" text-anchor="start" x="186.88" y="-75.7" font-family="Arial" font-weight="bold" font-size="14.00">15%</text>
<polygon fill="none" stroke="black" points="226.25,-69.25 226.25,-91 267.5,-91 267.5,-69.25 226.25,-69.25"/>
<text xml:space="preserve" text-anchor="start" x="243.12" y="-74.7" font-family="Arial" font-size="14.00">4</text>
<polygon fill="none" stroke="black" points="267.5,-69.25 267.5,-91 330.5,-91 330.5,-69.25 267.5,-69.25"/>
<text xml:space="preserve" text-anchor="start" x="285.88" y="-74.7" font-family="Arial" font-size="14.00">0.60</text>
<polygon fill="none" stroke="black" points="330.5,-69.25 330.5,-91 371.75,-91 371.75,-69.25 330.5,-69.25"/>
<text xml:space="preserve" text-anchor="start" x="347.38" y="-74.7" font-family="Arial" font-size="14.00">3</text>
<polygon fill="none" stroke="black" points="371.75,-69.25 371.75,-91 434.75,-91 434.75,-69.25 371.75,-69.25"/>
<text xml:space="preserve" text-anchor="start" x="390.12" y="-74.7" font-family="Arial" font-size="14.00">0.45</text>
<polygon fill="none" stroke="black" points="434.75,-69.25 434.75,-91 476,-91 476,-69.25 434.75,-69.25"/>
<text xml:space="preserve" text-anchor="start" x="451.62" y="-74.7" font-family="Arial" font-size="14.00">4</text>
<polygon fill="none" stroke="black" points="476,-69.25 476,-91 539,-91 539,-69.25 476,-69.25"/>
<text xml:space="preserve" text-anchor="start" x="494.38" y="-74.7" font-family="Arial" font-size="14.00">0.60</text>
<polygon fill="none" stroke="black" points="8,-47.5 8,-69.25 175.25,-69.25 175.25,-47.5 8,-47.5"/>
<text xml:space="preserve" text-anchor="start" x="60.12" y="-52.95" font-family="Arial" font-size="14.00">Initial Cost</text>
<polygon fill="none" stroke="black" points="175.25,-47.5 175.25,-69.25 226.25,-69.25 226.25,-47.5 175.25,-47.5"/>
<text xml:space="preserve" text-anchor="start" x="186.88" y="-53.95" font-family="Arial" font-weight="bold" font-size="14.00">10%</text>
<polygon fill="none" stroke="black" points="226.25,-47.5 226.25,-69.25 267.5,-69.25 267.5,-47.5 226.25,-47.5"/>
<text xml:space="preserve" text-anchor="start" x="243.12" y="-52.95" font-family="Arial" font-size="14.00">5</text>
<polygon fill="none" stroke="black" points="267.5,-47.5 267.5,-69.25 330.5,-69.25 330.5,-47.5 267.5,-47.5"/>
<text xml:space="preserve" text-anchor="start" x="285.88" y="-52.95" font-family="Arial" font-size="14.00">0.50</text>
<polygon fill="none" stroke="black" points="330.5,-47.5 330.5,-69.25 371.75,-69.25 371.75,-47.5 330.5,-47.5"/>
<text xml:space="preserve" text-anchor="start" x="347.38" y="-52.95" font-family="Arial" font-size="14.00">2</text>
<polygon fill="none" stroke="black" points="371.75,-47.5 371.75,-69.25 434.75,-69.25 434.75,-47.5 371.75,-47.5"/>
<text xml:space="preserve" text-anchor="start" x="390.12" y="-52.95" font-family="Arial" font-size="14.00">0.20</text>
<polygon fill="none" stroke="black" points="434.75,-47.5 434.75,-69.25 476,-69.25 476,-47.5 434.75,-47.5"/>
<text xml:space="preserve" text-anchor="start" x="451.62" y="-52.95" font-family="Arial" font-size="14.00">3</text>
<polygon fill="none" stroke="black" points="476,-47.5 476,-69.25 539,-69.25 539,-47.5 476,-47.5"/>
<text xml:space="preserve" text-anchor="start" x="494.38" y="-52.95" font-family="Arial" font-size="14.00">0.30</text>
<polygon fill="none" stroke="black" points="8,-25.75 8,-47.5 175.25,-47.5 175.25,-25.75 8,-25.75"/>
<text xml:space="preserve" text-anchor="start" x="11" y="-31.2" font-family="Arial" font-size="14.00">Performance (Under Load)</text>
<polygon fill="none" stroke="black" points="175.25,-25.75 175.25,-47.5 226.25,-47.5 226.25,-25.75 175.25,-25.75"/>
<text xml:space="preserve" text-anchor="start" x="190.62" y="-32.2" font-family="Arial" font-weight="bold" font-size="14.00">5%</text>
<polygon fill="none" stroke="black" points="226.25,-25.75 226.25,-47.5 267.5,-47.5 267.5,-25.75 226.25,-25.75"/>
<text xml:space="preserve" text-anchor="start" x="243.12" y="-31.2" font-family="Arial" font-size="14.00">2</text>
<polygon fill="none" stroke="black" points="267.5,-25.75 267.5,-47.5 330.5,-47.5 330.5,-25.75 267.5,-25.75"/>
<text xml:space="preserve" text-anchor="start" x="285.88" y="-31.2" font-family="Arial" font-size="14.00">0.10</text>
<polygon fill="none" stroke="black" points="330.5,-25.75 330.5,-47.5 371.75,-47.5 371.75,-25.75 330.5,-25.75"/>
<text xml:space="preserve" text-anchor="start" x="347.38" y="-31.2" font-family="Arial" font-size="14.00">4</text>
<polygon fill="none" stroke="black" points="371.75,-25.75 371.75,-47.5 434.75,-47.5 434.75,-25.75 371.75,-25.75"/>
<text xml:space="preserve" text-anchor="start" x="390.12" y="-31.2" font-family="Arial" font-size="14.00">0.20</text>
<polygon fill="none" stroke="black" points="434.75,-25.75 434.75,-47.5 476,-47.5 476,-25.75 434.75,-25.75"/>
<text xml:space="preserve" text-anchor="start" x="451.62" y="-31.2" font-family="Arial" font-size="14.00">5</text>
<polygon fill="none" stroke="black" points="476,-25.75 476,-47.5 539,-47.5 539,-25.75 476,-25.75"/>
<text xml:space="preserve" text-anchor="start" x="494.38" y="-31.2" font-family="Arial" font-size="14.00">0.25</text>
<polygon fill="#f5f5f5" stroke="none" points="8,-4 8,-25.75 175.25,-25.75 175.25,-4 8,-4"/>
<polygon fill="none" stroke="black" points="8,-4 8,-25.75 175.25,-25.75 175.25,-4 8,-4"/>
<text xml:space="preserve" text-anchor="start" x="69.12" y="-10.45" font-family="Arial" font-weight="bold" font-size="14.00">TOTAL</text>
<polygon fill="#f5f5f5" stroke="none" points="175.25,-4 175.25,-25.75 226.25,-25.75 226.25,-4 175.25,-4"/>
<polygon fill="none" stroke="black" points="175.25,-4 175.25,-25.75 226.25,-25.75 226.25,-4 175.25,-4"/>
<text xml:space="preserve" text-anchor="start" x="183.12" y="-10.45" font-family="Arial" font-weight="bold" font-size="14.00">100%</text>
<polygon fill="#ddebf7" stroke="none" points="226.25,-4 226.25,-25.75 330.5,-25.75 330.5,-4 226.25,-4"/>
<polygon fill="none" stroke="black" points="226.25,-4 226.25,-25.75 330.5,-25.75 330.5,-4 226.25,-4"/>
<text xml:space="preserve" text-anchor="start" x="265.25" y="-10.45" font-family="Arial" font-weight="bold" font-size="14.00">3.80</text>
<polygon fill="#e2f0d9" stroke="none" points="330.5,-4 330.5,-25.75 434.75,-25.75 434.75,-4 330.5,-4"/>
<polygon fill="none" stroke="black" points="330.5,-4 330.5,-25.75 434.75,-25.75 434.75,-4 330.5,-4"/>
<text xml:space="preserve" text-anchor="start" x="369.5" y="-10.45" font-family="Arial" font-weight="bold" font-size="14.00">3.15</text>
<polygon fill="#fff2cc" stroke="none" points="434.75,-4 434.75,-25.75 539,-25.75 539,-4 434.75,-4"/>
<polygon fill="none" stroke="black" points="434.75,-4 434.75,-25.75 539,-25.75 539,-4 434.75,-4"/>
<text xml:space="preserve" text-anchor="start" x="473.75" y="-10.45" font-family="Arial" font-weight="bold" font-size="14.00">3.85</text>
</g>
<!-- title&#45;&gt;matrix -->
</g>
</svg>
