<?xml version="1.0" encoding="UTF-8" standalone="no"?>
<!DOCTYPE svg PUBLIC "-//W3C//DTD SVG 1.1//EN"
 "http://www.w3.org/Graphics/SVG/1.1/DTD/svg11.dtd">
<!-- Generated by graphviz version 14.0.0 (20250921.2048)
 -->
<!-- Title: FrameworkRoadmap Pages: 1 -->
<svg width="993pt" height="44pt"
 viewBox="0.00 0.00 993.00 44.00" xmlns="http://www.w3.org/2000/svg" xmlns:xlink="http://www.w3.org/1999/xlink">
<g id="graph0" class="graph" transform="scale(1 1) rotate(0) translate(4 40)">
<title>FrameworkRoadmap</title>
<!-- Problem -->
<g id="node1" class="node">
<title>Problem</title>
<path fill="#438dd5" stroke="white" d="M97,-36C97,-36 12,-36 12,-36 6,-36 0,-30 0,-24 0,-24 0,-12 0,-12 0,-6 6,0 12,0 12,0 97,0 97,0 103,0 109,-6 109,-12 109,-12 109,-24 109,-24 109,-30 103,-36 97,-36"/>
<text xml:space="preserve" text-anchor="middle" x="54.5" y="-12.2" font-family="Helvetica,sans-Serif" font-size="14.00" fill="white">1. The Problem</text>
</g>
<!-- Drivers -->
<g id="node2" class="node">
<title>Drivers</title>
<path fill="none" stroke="white" d="M233.75,-36C233.75,-36 157,-36 157,-36 151,-36 145,-30 145,-24 145,-24 145,-12 145,-12 145,-6 151,0 157,0 157,0 233.75,0 233.75,0 239.75,0 245.75,-6 245.75,-12 245.75,-12 245.75,-24 245.75,-24 245.75,-30 239.75,-36 233.75,-36"/>
<text xml:space="preserve" text-anchor="middle" x="195.38" y="-12.2" font-family="Helvetica,sans-Serif" font-size="14.00" fill="white">2. The Drivers</text>
</g>
<!-- Problem&#45;&gt;Drivers -->
<g id="edge1" class="edge">
<title>Problem&#45;&gt;Drivers</title>
<path fill="none" stroke="white" d="M109.19,-18C117.18,-18 125.46,-18 133.59,-18"/>
<polygon fill="white" stroke="white" points="133.4,-21.5 143.4,-18 133.4,-14.5 133.4,-21.5"/>
</g>
<!-- Styles -->
<g id="node3" class="node">
<title>Styles</title>
<path fill="none" stroke="white" d="M364.5,-36C364.5,-36 293.75,-36 293.75,-36 287.75,-36 281.75,-30 281.75,-24 281.75,-24 281.75,-12 281.75,-12 281.75,-6 287.75,0 293.75,0 293.75,0 364.5,0 364.5,0 370.5,0 376.5,-6 376.5,-12 376.5,-12 376.5,-24 376.5,-24 376.5,-30 370.5,-36 364.5,-36"/>
<text xml:space="preserve" text-anchor="middle" x="329.12" y="-12.2" font-family="Helvetica,sans-Serif" font-size="14.00" fill="white">3. The Styles</text>
</g>
<!-- Drivers&#45;&gt;Styles -->
<g id="edge2" class="edge">
<title>Drivers&#45;&gt;Styles</title>
<path fill="none" stroke="white" d="M246.18,-18C253.92,-18 261.97,-18 269.87,-18"/>
<polygon fill="white" stroke="white" points="269.78,-21.5 279.78,-18 269.78,-14.5 269.78,-21.5"/>
</g>
<!-- Decision -->
<g id="node4" class="node">
<title>Decision</title>
<path fill="none" stroke="white" d="M510.25,-36C510.25,-36 424.5,-36 424.5,-36 418.5,-36 412.5,-30 412.5,-24 412.5,-24 412.5,-12 412.5,-12 412.5,-6 418.5,0 424.5,0 424.5,0 510.25,0 510.25,0 516.25,0 522.25,-6 522.25,-12 522.25,-12 522.25,-24 522.25,-24 522.25,-30 516.25,-36 510.25,-36"/>
<text xml:space="preserve" text-anchor="middle" x="467.38" y="-12.2" font-family="Helvetica,sans-Serif" font-size="14.00" fill="white">4. The Decision</text>
</g>
<!-- Styles&#45;&gt;Decision -->
<g id="edge3" class="edge">
<title>Styles&#45;&gt;Decision</title>
<path fill="none" stroke="white" d="M376.63,-18C384.39,-18 392.56,-18 400.69,-18"/>
<polygon fill="white" stroke="white" points="400.58,-21.5 410.58,-18 400.58,-14.5 400.58,-21.5"/>
</g>
<!-- Spike -->
<g id="node5" class="node">
<title>Spike</title>
<path fill="none" stroke="white" d="M638,-36C638,-36 570.25,-36 570.25,-36 564.25,-36 558.25,-30 558.25,-24 558.25,-24 558.25,-12 558.25,-12 558.25,-6 564.25,0 570.25,0 570.25,0 638,0 638,0 644,0 650,-6 650,-12 650,-12 650,-24 650,-24 650,-30 644,-36 638,-36"/>
<text xml:space="preserve" text-anchor="middle" x="604.12" y="-12.2" font-family="Helvetica,sans-Serif" font-size="14.00" fill="white">5. The Spike</text>
</g>
<!-- Decision&#45;&gt;Spike -->
<g id="edge4" class="edge">
<title>Decision&#45;&gt;Spike</title>
<path fill="none" stroke="white" d="M522.41,-18C530.47,-18 538.8,-18 546.9,-18"/>
<polygon fill="white" stroke="white" points="546.65,-21.5 556.65,-18 546.65,-14.5 546.65,-21.5"/>
</g>
<!-- Documentation -->
<g id="node6" class="node">
<title>Documentation</title>
<path fill="none" stroke="white" d="M823.5,-36C823.5,-36 698,-36 698,-36 692,-36 686,-30 686,-24 686,-24 686,-12 686,-12 686,-6 692,0 698,0 698,0 823.5,0 823.5,0 829.5,0 835.5,-6 835.5,-12 835.5,-12 835.5,-24 835.5,-24 835.5,-30 829.5,-36 823.5,-36"/>
<text xml:space="preserve" text-anchor="middle" x="760.75" y="-12.2" font-family="Helvetica,sans-Serif" font-size="14.00" fill="white">6. The Documentation</text>
</g>
<!-- Spike&#45;&gt;Documentation -->
<g id="edge5" class="edge">
<title>Spike&#45;&gt;Documentation</title>
<path fill="none" stroke="white" d="M650.26,-18C657.93,-18 666.1,-18 674.4,-18"/>
<polygon fill="white" stroke="white" points="674.24,-21.5 684.24,-18 674.24,-14.5 674.24,-21.5"/>
</g>
<!-- Evolution -->
<g id="node7" class="node">
<title>Evolution</title>
<path fill="none" stroke="white" d="M973,-36C973,-36 883.5,-36 883.5,-36 877.5,-36 871.5,-30 871.5,-24 871.5,-24 871.5,-12 871.5,-12 871.5,-6 877.5,0 883.5,0 883.5,0 973,0 973,0 979,0 985,-6 985,-12 985,-12 985,-24 985,-24 985,-30 979,-36 973,-36"/>
<text xml:space="preserve" text-anchor="middle" x="928.25" y="-12.2" font-family="Helvetica,sans-Serif" font-size="14.00" fill="white">7. The Evolution</text>
</g>
<!-- Documentation&#45;&gt;Evolution -->
<g id="edge6" class="edge">
<title>Documentation&#45;&gt;Evolution</title>
<path fill="none" stroke="white" d="M835.79,-18C843.77,-18 851.86,-18 859.75,-18"/>
<polygon fill="white" stroke="white" points="859.64,-21.5 869.64,-18 859.64,-14.5 859.64,-21.5"/>
</g>
</g>
</svg>
